<?xml version="1.0" standalone="no"?>
<!DOCTYPE svg PUBLIC "-//W3C//DTD SVG 1.1//EN" "http://www.w3.org/Graphics/SVG/1.1/DTD/svg11.dtd" >
<!--
2016-6-22: Created.
-->
<svg xmlns="http://www.w3.org/2000/svg">
<metadata>
Created by FontForge 20120731 at Wed Jun 22 15:02:10 2016
 By root
Created by root with FontForge 2.0 (http://fontforge.sf.net)
</metadata>
<defs>
<font id="Flaticon" horiz-adv-x="512" >
  <font-face 
    font-family="Flaticon"
    font-weight="500"
    font-stretch="normal"
    units-per-em="512"
    panose-1="2 0 6 3 0 0 0 0 0 0"
    ascent="448"
    descent="-64"
    bbox="-0.0101569 -64.0023 512.003 448.002"
    underline-thickness="25.6"
    underline-position="-51.2"
    unicode-range="U+0020-F15A"
  />
    <missing-glyph />
    <glyph glyph-name="space" unicode=" " horiz-adv-x="200" 
 />
    <glyph glyph-name="uniF10F" unicode="&#xf10f;" 
d="M110.237 -41.75c-49.4268 27.7148 -23.375 122.878 -23.7051 167.371c-0.595703 78.0586 -2.53516 156.1 -2.67676 234.157c-0.00878906 7.52441 3.07715 13.0205 7.58691 16.5967c3.53125 3.3623 8.36133 5.60254 14.6494 5.63867
c41.8047 0.230469 84.1611 3.20215 126.507 5.57617c0.390625 3.16602 0.863281 6.35059 1.55664 9.57031c18.2441 0 26.2842 -1.05859 31.9229 -7.88086c32.6963 1.40527 65.2852 1.92969 97.5098 0.00878906c57.4062 -3.4248 63.4453 -66.7812 64.1299 -113.744
c0.988281 -67.2959 -3.71875 -133.105 0.507812 -200.356c2.33984 -37.3486 12.3184 -93.8467 -13.8838 -125.271c-25.9463 -31.1309 -106.202 -0.213867 -139.512 -0.889648c-52.9395 -1.06738 -115.727 -18.1807 -164.593 9.22363zM314.197 288.939
c-22.2373 -13.3408 -85.9746 -4.44727 -111.181 -4.4502c0.577148 6.82227 3.54785 13.4131 7.23926 19.9688c-9.7041 -0.444336 -19.416 -0.783203 -29.1201 -1.03223c-1.84961 -63.1943 -12.2119 -126.452 -8.97461 -189.684
c0.330078 -6.44922 0.988281 -46.9717 6.25391 -47.7197c10.042 -1.43066 20.0742 -1.68066 30.0986 -3.43164c32.6865 -5.72852 65.2764 1.89453 98.0977 -0.142578c46.4189 -2.88184 33.9668 51.0459 31.1211 79.5889c-2.65039 26.5586 -2.22363 52.583 -1.92188 79.2939
c0.230469 20.8223 0.80957 41.8311 -0.80957 62.6084c-1.4668 18.7324 -14.2842 23.1611 -29.4941 23.8643c3.13965 -6.28711 6.10156 -12.5771 8.69043 -18.8643zM130.615 165.999c0.318359 -28.2744 1.83105 -56.915 -0.585938 -85.1182
c-1.99316 -23.2686 -8.94043 -55.0752 -0.418945 -77.5869c13.04 -34.4131 117.577 -8.56543 145.229 -9.7832c11.1094 -0.489258 107.26 -14.8994 108.3 -9.94434c8.02344 38.3525 1.52148 81.2695 -1.44043 119.951c-3.65625 47.7012 1.00391 94.4775 1.58301 142.214
c0.160156 13.6348 4.14551 94.9844 -13.0664 98.3545c-17.7441 3.46875 -38.0332 -1.0752 -55.9912 -1.17383c-8.9043 -0.0439453 -17.8066 -0.3125 -26.7109 -0.480469c2.30469 -4.53613 4.66895 -9.07324 7.07129 -13.6094
c17.1572 -0.34668 34.3154 -1.37793 51.5088 -3.84277c5.20312 -0.756836 7.62402 -6.24512 8.15723 -10.7275c5.85254 -49.0537 -0.285156 -97.832 3.40625 -146.76c2.11719 -27.9922 8.53906 -57.7168 5.03516 -85.7705
c-7.23145 -57.8848 -75.7275 -43.2715 -120.21 -43.6543c-50.7969 -0.43457 -86.2148 -2.40039 -91.0098 53.0293c-6.43945 74.4658 6.83105 148.725 7.75684 223.146c0.0341797 3.24805 1.23633 5.70996 3.02344 7.48926
c0.0527344 0.0625 0.106445 0.106445 0.150391 0.160156c0.178711 0.168945 0.356445 0.355469 0.542969 0.515625c1.76953 1.74316 4.21582 2.91699 7.39941 2.96191c17.6914 0.25 35.3291 1.0752 52.9404 1.87695c1.42188 3.01562 2.68652 6.04883 3.45996 9.13477
c0.426758 1.48633 0.719727 2.95312 1.05762 4.42969c-33.0869 -1.15625 -66.166 -2.28613 -99.2705 -2.85449c0.338867 -57.3164 1.42383 -114.642 2.08203 -171.957zM254.693 385.739c-19.9609 0 -30.3936 15.6631 -30.4004 31.1299
c0 7.95215 2.66699 15.4404 7.52441 21.0889c5.56836 6.47559 13.6973 10.042 22.876 10.042c19.959 0 30.4004 -15.6631 30.4004 -31.1299c0 -7.95215 -2.66699 -15.4404 -7.52441 -21.0889c-5.56836 -6.47559 -13.6973 -10.042 -22.876 -10.042z" />
    <glyph glyph-name="uniF15A" unicode="&#xf15a;" 
d="M2.59082 332.599c-7.91406 36.6436 48.2783 52.2275 56.2158 15.502c27.2148 -126.125 32.5195 -255.259 32.8213 -383.912c0.09375 -37.5898 -58.1826 -37.5791 -58.2773 0c-0.301758 123.434 -4.62695 247.379 -30.7598 368.41zM149.907 133.731
c-0.280273 37.5869 57.999 37.5654 58.2773 0c0.407227 -56.5527 4.91797 -112.979 5.29102 -169.53c0.246094 -37.5898 -58.0332 -37.5654 -58.2773 0c-0.373047 56.5518 -4.88379 112.978 -5.29102 169.53zM239.969 271.476c-0.254883 37.5889 58.0225 37.5654 58.2773 0
c0.698242 -102.544 9.85938 -204.754 10.5947 -307.287c0.280273 -37.5898 -57.9971 -37.5664 -58.2773 0c-0.735352 102.533 -9.88379 204.754 -10.5947 307.287zM414.803 -35.8115c-0.746094 -37.5312 -59.0342 -37.6025 -58.2773 0
c3.07715 153.096 -35.1426 302.789 -37.0879 455.628c-0.477539 37.5996 57.7998 37.5547 58.2773 0c1.94531 -152.839 40.1758 -302.543 37.0879 -455.628zM437.042 231.94c-6.00195 36.749 50.1426 52.5078 56.2012 15.4912
c15.3389 -93.9102 16.9014 -188.296 16.9248 -283.243c0.0126953 -37.5898 -58.2666 -37.5791 -58.2773 0c-0.0234375 89.5381 -0.360352 179.158 -14.8486 267.752z" />
    <glyph glyph-name="uniF108" unicode="&#xf108;" 
d="M88.1113 -63.9951c-13.9922 -0.266602 -22.3936 11.083 -23.7637 23.7617c-16.3857 151.795 -21.9355 304.702 -22.1729 457.323c-0.00878906 8.08691 3.33496 13.9795 8.20215 17.8008c3.76367 3.54395 8.8877 5.91211 15.5586 5.95898
c118.473 0.847656 236.945 16.8418 354.82 -1.95508c10.9775 -1.75977 16.4902 -13.1934 17.4414 -22.916c14.8359 -151.567 51.2275 -307.819 18.1631 -459.367c-2.21582 -10.123 -12.8037 -17.6025 -22.916 -17.4414c-58.9854 0.922852 -118.235 12.4326 -177.173 9.66699
c-56.2178 -2.64258 -111.856 -11.7871 -168.16 -12.832zM392.879 395.21c-100.301 13.2871 -202.178 1.02734 -303.049 -1.47266c0.72168 -136.627 5.95898 -273.404 19.5996 -409.374c49.0518 2.82227 97.6953 11.2734 146.833 11.9951
c52.7031 0.768555 105.044 -6.7207 157.67 -9.04004c24.0742 134.013 -6.18848 273.774 -21.0537 407.892zM132.457 239.775c-5.69336 -1.91113 -13.5723 2.14746 -14.626 8.29883c-6.23438 36.7344 -3.96289 73.7822 -3.59277 110.878
c0.0390625 3.2998 1.20801 5.83691 2.95703 7.71875c1.90137 2.45996 4.85645 4.16211 8.92383 4.16211h140.455c25.5098 0 61.6445 7.5459 85.5107 -4.62891c38.835 -19.8066 30.4141 -64.7627 29.8643 -102.296c-0.0664062 -4.88672 -3.52637 -10.5791 -8.7168 -11.4639
c-79.9414 -13.5059 -162.791 13.5635 -240.775 -12.6689zM137.808 347.07c-0.578125 -26.8408 -1.81348 -53.8809 1.23535 -80.5312c35.8232 9.6377 72.082 9.92188 109.444 7.66992c20.6523 -1.24609 41.4297 -3.12793 62.1299 -3.07031
c13.9062 0.0380859 47.6172 -6.80469 47.874 7.69922c0.428711 24.5303 7.33789 69.0117 -35.8027 68.9834c-18.7051 -0.0195312 -37.3896 -0.750977 -56.1055 -0.750977h-128.775zM167.31 116.589c-21.3271 0 -32.4756 16.7363 -32.4863 33.2656
c0 8.50684 2.85059 16.499 8.04004 22.5352c5.9502 6.91992 14.6367 10.7305 24.4443 10.7305c21.3301 0 32.4873 -16.7363 32.4873 -33.2656c0 -8.49805 -2.85059 -16.499 -8.04004 -22.5352c-5.9502 -6.91992 -14.6367 -10.7305 -24.4453 -10.7305zM259.189 122.918
c-21.3291 0 -32.4863 16.7383 -32.4863 33.2656c0 8.50684 2.85059 16.499 8.04004 22.5352c5.9502 6.91992 14.6367 10.7305 24.4453 10.7305c21.3291 0 32.4863 -16.7363 32.4863 -33.2656c0 -8.49609 -2.85059 -16.499 -8.04004 -22.5352
c-5.9502 -6.91992 -14.6367 -10.7305 -24.4453 -10.7305zM351.068 186.285c21.3271 0 32.4863 -16.7393 32.4863 -33.2656c0 -8.49609 -2.84961 -16.5 -8.04004 -22.5352c-5.9502 -6.91992 -14.6367 -10.7314 -24.4443 -10.7314
c-21.3291 0 -32.4863 16.7373 -32.4863 33.2666c0 8.50586 2.84961 16.499 8.03906 22.5342c5.9502 6.91992 14.6367 10.7314 24.4453 10.7314zM354.232 94.4053c21.3301 0 32.4873 -16.7285 32.4873 -33.2666c0 -8.49609 -2.85059 -16.499 -8.04004 -22.5342
c-5.9502 -6.91992 -14.6367 -10.7314 -24.4453 -10.7314c-21.3291 0 -32.4863 16.7373 -32.4863 33.2656c0 8.50684 2.84961 16.5 8.04004 22.5352c5.9502 6.91992 14.6367 10.7314 24.4443 10.7314zM262.354 97.5801c21.3379 0 32.4863 -16.7373 32.4863 -33.2656
c0 -8.49609 -2.84961 -16.5 -8.04004 -22.5352c-5.94922 -6.91992 -14.6357 -10.7314 -24.4443 -10.7314c-21.3291 0 -32.4863 16.7373 -32.4863 33.2666c0 8.50586 2.84961 16.499 8.04004 22.5342c5.94922 6.91992 14.6357 10.7314 24.4443 10.7314zM170.485 84.9004
c21.3271 0 32.4863 -16.7275 32.4863 -33.2656c0 -8.49609 -2.85059 -16.499 -8.04004 -22.5352c-5.9502 -6.91992 -14.6367 -10.7305 -24.4453 -10.7305c-21.3291 0 -32.4863 16.7363 -32.4863 33.2656c0 8.50684 2.85059 16.499 8.04004 22.5352
c5.9502 6.91992 14.6367 10.7305 24.4453 10.7305z" />
    <glyph glyph-name="uniF107" unicode="&#xf107;" 
d="M480.062 435.623c1.66211 -45.1064 -22.8643 -70.248 -62.2578 -87.4424c-13.7432 -5.99609 -26.1465 -11.7773 -36.9277 -18.1348c7.7793 -6.37598 15.4863 -12.8428 23.1729 -19.3193c2.57422 -1.41602 5.07617 -3.37305 7.38867 -6.20215
c3.08398 -2.58203 5.22656 -5.40625 6.6084 -8.29297c55.5576 -70.8838 86.3223 -145.654 12.6631 -219.12c-60.3535 -60.2158 -168.227 -182.764 -266.5 -126.866c-49.9727 28.4209 -146.906 130.219 -130.504 195.917c9.52637 38.0918 53.8574 69.9385 80.2158 95.6367
c48.6709 47.4307 97.6084 94.5742 143.857 144.402c8.46875 9.13574 20.6318 8.53809 31.0527 4.01855c24.8867 -10.8457 47.3604 -25.5557 68.8027 -41.8037c3.05371 1.88672 6.22656 3.72461 9.62891 5.40625c39.6621 19.6055 89.165 27.5391 87.1729 81.8008
c-0.610352 16.5332 25.0156 16.4727 25.626 0zM426.225 178.587c-4.39453 34.1309 -30.2207 64.0918 -51.0332 89.6699c-10.2607 8.60938 -20.4922 17.1885 -30.8633 25.542c-6.7959 -13.7334 -9.75879 -30.8711 -7.88672 -53.6709
c1.36035 -16.4727 -24.2744 -16.3477 -25.627 0c-2.14355 26.0068 1.18066 50.2266 11.6416 70.6084c-13.0527 9.58398 -26.6279 18.4199 -40.9736 26.1064c-55.7598 -58.1611 -117.384 -111.007 -171.275 -170.681c-23.2246 -25.7441 -32.6699 -35.876 -11.8682 -69.0908
c17.2842 -27.6084 37.6191 -53.707 60.3887 -77.0215c74.7891 -76.6416 154.948 18.4102 211.357 70.0234c23.6768 21.6836 60.834 52.1865 56.1396 88.5137z" />
    <glyph glyph-name="uniF140" unicode="&#xf140;" 
d="M339.979 51.0156c24.623 46.165 66.7178 53.3057 112.479 54.0723v273.291c-90.752 2.64355 -181.135 12.3984 -271.908 14.6621v-247.939c0 -3.46094 -0.664062 -6.47656 -1.61133 -9.25293c8.84082 -35.1611 2.41797 -72.0947 -26.4834 -98.4922
c-26.7236 -24.4385 -69.6895 -43.3037 -106.188 -30.6104c-50.6943 17.6338 -52.6855 68.3818 -29.9902 110.944c24.1436 45.251 65.1055 53.002 109.846 53.9932v233.209c0 5.88867 1.62305 10.7119 4.18066 14.6299c-0.675781 14.0957 8 28.6396 26.2002 28.4756
c109.172 -0.946289 217.667 -14.9463 326.849 -15.8926c23.1416 -0.206055 30.9375 -23.9141 23.5342 -39.9717v-365.022c0 -6.3877 -1.83984 -11.5918 -4.78906 -15.6523c-4.57129 -14.9678 -12.9873 -28.9336 -25.9395 -40.7773
c-26.7344 -24.4385 -69.6895 -43.3037 -106.188 -30.6113c-50.6943 17.6348 -52.6973 68.3828 -29.9902 110.945zM391.086 -8.84277c34.4854 -0.816406 66.207 26.6484 60.5791 60.1748c-24.0684 0.806641 -49.9658 -0.173828 -62.3203 -23.3379
c-4.34277 -8.15332 -13.3564 -24.0684 -9.66602 -33.7129c-0.446289 1.1748 7.95703 -3.03613 11.4072 -3.12402zM67.3955 57.8301c34.4756 -0.816406 66.2168 26.6484 60.6113 60.1748c-24.0781 0.806641 -49.998 -0.173828 -62.3525 -23.3379
c-4.34277 -8.15332 -13.3574 -24.0684 -9.66602 -33.7129c-0.446289 1.1748 7.95703 -3.03613 11.4072 -3.12402z" />
    <glyph glyph-name="uniF110" unicode="&#xf110;" 
d="M292.417 235.616c106.146 -23.9395 161.128 -129.933 216.706 -222.084c6.87012 -11.3857 1.05957 -30.7832 -13.4277 -33.0322c-77.4922 -12.0049 -152.44 6.61914 -229.817 7.9502c-81.3594 1.39355 -162.46 -8.1123 -243.802 -8.75
c-15.7754 -0.125977 -24.0303 14.3633 -21.6826 28.4639c18.417 110.649 105.588 208.413 218.028 227.039c2.03223 0.332031 3.95703 0.368164 5.81836 0.233398c3.43555 2.9043 7.94141 4.83789 13.5801 5.05371c23.958 25.1094 60.6309 85.4258 29.6582 110.462
c-26.6016 21.4844 -96.7383 9.60547 -58.6533 -31.6094c19.6494 -21.25 -12.0781 -53.1318 -31.79 -31.791c-23.3994 25.3242 -40.9717 66.6924 -9.96387 94.5713c25.6748 23.085 67.8066 32.708 100.569 19.2275c71.082 -29.2373 61.9541 -110.174 24.7764 -165.734z
M251.399 33.6592c66.7812 -1.15039 134.392 -16.5654 201.301 -12.9414c-49.416 84.9131 -103.041 177.884 -213.126 174.816c-2.40137 -1.7627 -5.41309 -3.08496 -9.17285 -3.70508c-88.6533 -14.668 -155.453 -82.6729 -179.861 -166.561
c66.9619 2.24023 133.897 9.54199 200.859 8.39062z" />
    <glyph glyph-name="uniF11E" unicode="&#xf11e;" 
d="M437.44 344.514c3.42383 -2.4707 6.0625 -6.30762 7.07324 -11.9238c19.6377 -108.739 54.7627 -213.965 67.4014 -324.021c1.00293 -8.70996 -7.11719 -18.6514 -15.4727 -20.3291c-51.5586 -10.3535 -103.067 -2.03027 -155.038 -0.833984
c-25.8262 -21.7852 -68.2354 -9.53516 -98.1338 -7.78125c-72.3584 4.24121 -145.189 4.31738 -217.034 -6.18848c-17.0049 -2.47852 -28.2871 9.01465 -25.9268 25.9355c16.2227 116.229 56.4248 227.583 54.7803 346.112
c-0.210938 15.3789 13.1689 22.0312 24.9141 20.0156c2.1748 0.699219 4.55273 1.14551 7.27637 1.06152c8.8457 -0.269531 17.6982 -0.362305 26.5518 -0.504883c0.675781 9.82227 1.58594 19.6357 3.10352 29.459c1.75293 11.375 15.833 17.4951 25.9258 14.7227
c12.0234 -3.30664 16.4678 -14.5879 14.7227 -25.9365c-0.944336 -6.13672 -1.52539 -12.334 -1.96387 -18.54c10.3037 0.0175781 20.6055 0.0673828 30.9102 0.176758v23.9707c0 27.1914 42.1562 27.1914 42.1562 0v-23.3965
c8.69238 0.151367 17.3857 0.277344 26.0869 0.428711c0.0927734 7.66406 0.209961 15.3115 0.244141 22.9756c0.134766 27.1836 42.292 27.1914 42.1572 0c-0.0419922 -7.44531 -0.152344 -14.8896 -0.245117 -22.335c9.22363 0.108398 18.4482 0.166992 27.6719 0.21875
c-0.269531 7.37891 -0.599609 14.7461 -1.08789 22.1162c-1.78711 27.1572 40.377 26.9805 42.1572 0c0.489258 -7.41113 0.818359 -14.8135 1.08789 -22.2246c16.6689 -0.186523 33.3467 -0.490234 50.0234 -1.13086c13.0947 -0.49707 20.624 -10.2773 20.6582 -22.0479z
M97.0967 324.219c-0.387695 -15.5381 -1.40039 -30.9863 -2.93359 -46.3467c95.207 0.556641 190.391 3.34863 285.599 3.52539c1.1875 0 2.25098 -0.168945 3.3291 -0.321289c3.16309 14.5703 6.06348 29.2334 8.75293 43.9707
c-8.12012 0.195312 -16.2402 0.388672 -24.3506 0.472656c0.0175781 -4.45215 0.0341797 -8.91211 0.0341797 -13.3633c0.00976562 -27.1924 -42.1484 -27.1924 -42.1562 0c0 4.50098 -0.0263672 8.99512 -0.0341797 13.4893
c-9.15723 -0.0419922 -18.3135 -0.108398 -27.4619 -0.21875c0.321289 -4.41797 0.59082 -8.8457 1.15527 -13.2637c1.44922 -11.4248 -10.6836 -21.0791 -21.0791 -21.0791c-12.5889 0 -19.6377 9.68848 -21.0791 21.0791
c-0.541016 4.21582 -0.78418 8.42285 -1.10547 12.6387c-9.02148 -0.151367 -18.0518 -0.286133 -27.0811 -0.446289v-12.1924c0 -27.1914 -42.1572 -27.1914 -42.1572 0v11.627c-10.6328 -0.108398 -21.2559 -0.160156 -31.8887 -0.176758v-2.18457
c-0.0078125 -27.1914 -42.1641 -27.1914 -42.1562 0c0 0.84375 0.0166016 1.66016 0.0166016 2.50391c-5.13379 0.0830078 -10.2695 0.15918 -15.4033 0.286133zM316.543 30.1631c19.1133 70.0908 39.8965 138.959 56.9375 209.042
c-94.9141 -0.295898 -189.792 -3.05273 -284.705 -3.52539c-11.1387 -72.957 -30.6318 -144.574 -43.1104 -217.667c52.8896 6.00293 106.033 7.68945 159.354 5.57324c21.543 -0.84375 42.4775 -2.29297 63.8096 -5.20996
c18.6846 -2.55469 42.2676 -8.2207 47.7148 11.7871zM360.715 28.7461c35.5547 -2.07422 71.498 -6.48242 106.792 -2.5625c-10.3037 74.7031 -30.7754 147.425 -47.9492 220.82c-8.42188 -39.2412 -17.9678 -78.2529 -28.6924 -116.92
c-8.625 -31.1045 -16.0703 -63.6826 -27.79 -93.791c-0.943359 -2.41211 -1.67676 -4.95801 -2.36035 -7.54688zM247.303 207.586c13.5918 -0.0927734 13.5996 -21.1699 -0.00195312 -21.0791c-21.9717 0.144531 -43.7002 1.18164 -65.3438 -2.38574v-28.4219
c16.4678 3.00195 35.0752 2.25977 48.4229 -7.20898c16.9648 -12.04 28.0264 -36.2305 19.9238 -57.0723c-14.1309 -36.3555 -73.9424 -49.1123 -92.1973 -9.29883c-5.63184 12.2588 12.5371 22.9844 18.1953 10.6396c12.4697 -27.1816 57.7715 -11.9961 54.6357 16.9316
c-3.12793 28.8516 -34.9824 29.4346 -56.7188 22.3936c-6.56836 -2.13281 -13.3389 3.54004 -13.3389 10.1592v50.5889c0 4.50098 3.18652 9.16406 7.73145 10.1592c26.1055 5.74219 52.1406 4.77148 78.6914 4.59473z" />
    <glyph glyph-name="uniF13C" unicode="&#xf13c;" 
d="M448.873 270.545c13.123 -0.616211 21.5996 -9.88867 22.6523 -22.6523c5.38867 -65.6533 5.08984 -136.459 -0.698242 -202.095c-2.74414 -31.1465 -21.1201 -59.3125 -47.54 -75.8057c-62.8721 -39.252 -148.721 -37.4756 -219.691 -29.0713
c-47.0586 5.56934 -124.104 7.6709 -147.825 57.4023c-35.1045 73.6133 -11.3574 173.873 -10.4697 252.179c0.0712891 6.26758 2.29102 11.1045 5.61426 14.6816c3.63184 4.70898 9.26465 7.95215 17.0264 7.96094c3.21582 0 6.43945 0.0283203 9.6543 0.0361328
c1.74902 44.8496 9.02051 93.7568 40.6562 126.56c39.0898 40.5488 98.8105 51.1904 153.234 47.6133c48.2725 -3.17871 102.27 -15.0977 128.679 -60.3916c20.7031 -35.5205 24.3076 -76.0684 31.2188 -115.756c5.82227 -0.226562 11.666 -0.389648 17.4893 -0.661133z
M143.982 359.294c-15.4961 -26.3662 -19.7627 -55.9902 -21.0576 -85.9219c87.3984 0.525391 174.824 1.56738 262.186 -0.633789c-12.3984 68.1523 -23.7285 127.483 -113.626 129.34c-42.6133 0.879883 -102.679 -0.560547 -127.502 -42.7842zM426.156 86.3193
c0.887695 46.6074 3.5791 93.1875 1.44043 139.755c-112.532 4.35547 -225.199 2.26465 -337.794 1.875c-3.34961 -65.2354 -15.6582 -136.641 2.82617 -198.671c6.58398 -22.125 13.1045 -23.3936 35.0498 -29.0898c24.8789 -6.46582 50.3389 -11.248 75.9053 -13.9746
c59.0703 -6.28516 138.263 -13.6758 191.281 19.4277c32.252 20.1328 30.6299 45.7998 31.291 80.6777zM234.325 134.639c0.170898 29.1982 45.4551 29.2168 45.2832 0c-0.125977 -22.1533 -1.72168 -44.2529 -1.06934 -66.4141
c0.861328 -29.2266 -44.4229 -29.1348 -45.2832 0c-0.651367 22.1631 0.942383 44.2607 1.06934 66.4141z" />
    <glyph glyph-name="uniF122" unicode="&#xf122;" 
d="M30.8428 -3.34375c-13.2861 0.648438 -24.3096 10.5869 -24.3457 24.3486c-0.325195 111.48 -6.17871 222.871 -6.49707 334.381c-0.0234375 8.15137 3.27246 14.1367 8.12207 18.0537c3.875 3.76562 9.21875 6.28125 16.2246 6.29102
c85.2324 0.167969 170.415 2.61914 255.64 3.10547c48.5215 0.261719 97.8623 8.29883 146.241 5.57324c29.0645 -1.63477 69.3232 -6.2334 74.334 -42.2686c5.53613 -39.8486 -2.96582 -78.9414 -0.0849609 -118.667c4.66895 -64.2803 42.9688 -211.435 -52.25 -224.349
c-62.6748 -8.50391 -131.148 -1.1416 -194.654 -3.82324c-74.2334 -3.14844 -148.453 -6.27832 -222.729 -2.64551zM457.213 63.0498c3.54785 18.0693 3.7207 36.6543 2.94922 55.0166c-1.30371 31.2139 -4.96484 62.2275 -7.25684 93.3418
c-133.851 1.43164 -267.719 2.19141 -401.449 -4.32227c1.48438 -54.1328 2.91602 -108.268 3.41992 -162.42c112.247 -2.97754 224.132 10.1475 336.297 7.17969c17.0723 -0.446289 61.6943 -10.9072 66.04 11.2041zM347.91 336.245
c-98.6416 -7.87305 -199.623 -5.50977 -298.899 -5.25781c0.119141 -12.0166 0.275391 -24.0332 0.480469 -36.04c135.609 6.6709 271.352 5.84473 407.074 4.37012c0.428711 11.6973 -0.0761719 23.1475 -2.9668 33.8711
c-4.55469 16.8662 -92.0791 4.1416 -105.688 3.05664zM365.267 167.779c58.1768 -5.74512 58.2227 -24.9756 63.2734 -76.7021c0.655273 -6.70508 -6.04102 -12.0693 -12.1748 -12.1738c-104.756 -1.90137 -214.241 16.3672 -318.133 -1.18945
c-6.02051 -1.0166 -13.7715 1.50293 -14.9795 8.50195c-3.62207 20.9238 -2.64844 42.1328 -2.46289 63.2939c0.0283203 3.45117 1.27441 6.09473 3.125 8.03418c1.95703 2.45508 4.95898 4.12793 9.04785 4.1377c89.1953 0.208984 183.761 14.8271 272.304 6.09766z
M105.52 103.23c97.8027 13.7334 199.165 -0.464844 297.676 -0.0664062c-1.84473 22.874 -4.41211 38.8682 -37.918 40.2764c-30.6318 1.27344 -61.4541 -0.959961 -92.0977 -1.99707c-56.083 -1.91211 -112.152 -3.6416 -168.264 -4.00391
c-0.277344 -11.4033 -0.410156 -22.8828 0.603516 -34.209z" />
    <glyph glyph-name="uniF115" unicode="&#xf115;" 
d="M221.72 399.844c-2.38965 -16.4854 -4.76855 -32.9717 -7.15723 -49.4512c-35.1152 -3.79102 -70.8564 -5.26465 -107.405 -5.625c6.31641 -47.165 20.7559 -92.1475 37.1729 -136.574c16.4365 0.116211 33.167 0.498047 49.8672 1.46289
c-2.37012 -16.3203 -4.72852 -32.6396 -7.08789 -48.96c-8.16992 -0.418945 -16.3281 -0.750977 -24.4502 -0.955078c6.29883 -16.5439 12.4893 -33.1162 18.29 -49.7881c0.457031 -3.20605 1.45215 -6.15137 2.93359 -8.77344
c15.4043 -45.6543 27.2969 -92.2354 28.623 -141.624c0.849609 -31.4492 -47.8965 -31.3721 -48.7441 0c-3.77344 140.387 -93.9023 260.407 -107.24 399.711c-0.680664 7.12695 1.40527 12.5381 4.94336 16.3994c2.36816 9.59277 9.86621 17.7227 22.6758 17.7227
c47.0098 0.0195312 92.8115 0.858398 137.579 6.45508zM446.328 294.262c-40.5283 -86.2012 -122.439 -118.021 -209.686 -129.197c2.3877 16.5439 4.78613 33.0986 7.17578 49.6426c49.6514 7.63379 96.0186 24.0332 129.799 59.3232
c-17.8115 -2.75781 -35.916 -3.43066 -55.4824 -0.00878906c-15.2852 2.6709 -22.5303 23.3984 -14.5654 35.7979c14.1455 22.0039 26.2842 44.71 37.1729 68.0781c-25.1221 -8.9502 -50.5273 -15.376 -76.2363 -20.2012c2.44824 16.9062 4.89551 33.8018 7.3418 50.7061
c34.6475 7.72168 68.7012 19.3223 102.208 36.9004c17.3633 9.11621 43.707 -6.08203 35.8096 -27.5205c-12.2949 -33.3809 -26.2344 -65.5918 -43.0127 -96.5645c16.291 2.60254 32.2402 7.92578 48.1992 12.9072c4.19238 2.57324 9.22363 4.0166 13.5615 4.0166h3.24609
c24.5293 0 31.2852 -31.2256 14.4688 -43.8799z" />
    <glyph glyph-name="uniF120" unicode="&#xf120;" 
d="M206.353 -51.4785c-63.3184 63.957 -124.144 129.697 -194.526 186.073c-34.5801 27.6924 14.3574 75.9717 48.5693 48.5674c54.0215 -43.2539 102.381 -92.0117 150.546 -141.235c42.1484 144.189 149.885 269.224 235.363 388.049
c25.5986 35.6084 85.2344 1.37402 59.2988 -34.6631c-93.54 -130.046 -217.146 -268.055 -241.85 -431.645c-3.96973 -26.3496 -40.8447 -31.9043 -57.4014 -15.1465z" />
    <glyph glyph-name="uniF105" unicode="&#xf105;" 
d="M106.962 -18.8525c-13.7314 -2.56836 -23.4404 3.75195 -28.627 16.2529c-30.4863 73.3457 -46.4414 151.298 -71.3711 226.515c-3.36133 10.1377 0.185547 18.1523 6.51562 23.0762c3.72461 3.8252 8.98438 6.37695 15.9189 6.38574
c26.5508 0.0185547 53.0996 0.261719 79.6484 0.457031c-27.7588 34.7969 -63.8682 63.0498 -99.1406 89.5986c-23.6738 17.8184 -0.522461 58.2559 23.4863 40.1963c49.3926 -37.1787 99.1221 -76.2305 132.392 -129.263c62.7422 0.791016 125.485 2.07617 188.209 3.84375
c24.623 51.0508 56.2168 100.359 98.0322 138.834c22.0449 20.2842 55.0352 -12.5391 32.9072 -32.9072c-32.1621 -29.5938 -57.3057 -65.8242 -78.0205 -104.278c27.2471 0.893555 54.4941 1.75977 81.7324 2.8291c14.877 0.584961 26.8008 -15.3418 22.4453 -29.4639
c-23.207 -75.1221 -39.0791 -152.246 -52.7539 -229.623c-2.04688 -11.5801 -10.1924 -16.6084 -19.0264 -16.7656c-1.11816 -0.140625 -2.20605 -0.325195 -3.41602 -0.316406c-109.492 0.735352 -220.426 14.9492 -328.932 -5.37109zM457.21 215.053
c-131.991 -4.84863 -264.029 -7.57617 -396.114 -8.0332c17.9756 -59.2422 32.4688 -119.526 54.4102 -177.447c99.8193 15.0723 200.47 5.53906 301.08 3.75195c11.0762 61.0938 23.7744 121.956 40.624 181.729zM159.361 64.8809
c-12.2598 36.2412 -21.3359 73.2441 -27.9268 110.926c-2.56934 14.6709 19.8652 20.9453 22.4443 6.18164c6.58105 -37.6816 15.6572 -74.6758 27.9268 -110.926c4.82129 -14.2529 -17.6592 -20.3223 -22.4443 -6.18164zM264.45 68.8281
c-1.06055 36.0166 -14.6709 70.0977 -18.6172 105.805c-1.64648 14.9121 21.6436 14.7441 23.2725 0c3.94727 -35.793 17.5381 -69.5469 18.6182 -105.805c0.446289 -15.0156 -22.8262 -14.9688 -23.2734 0zM389.712 74.4707
c4.23438 -14.4385 -18.2275 -20.5557 -22.4443 -6.18164c-10.4355 35.5801 -6.9248 72.3398 -8.17285 108.905c-0.511719 15.0156 22.7607 14.9609 23.2725 0c1.17285 -34.4248 -2.48633 -69.2217 7.34473 -102.724z" />
    <glyph glyph-name="uniF111" unicode="&#xf111;" 
d="M146.238 151.192c-5.54785 -1.42383 -11.9902 1.75391 -13.3535 7.57617c-11.8916 51.0986 -11.3281 104.245 -11.3545 156.41c-0.0078125 3.75098 1.57227 6.4668 3.85449 8.2041c1.71973 1.5625 4.01953 2.6123 6.99805 2.64746
c45.6191 0.522461 91.0303 5.5127 136.624 6.59863c26.5557 0.633789 69.3984 6.38086 93.793 -7.99512c48.9531 -28.8477 21.2852 -103.74 24.4199 -149.265c0.416992 -6.00684 -5.25293 -10.7129 -10.8516 -10.8516c-77.2539 -1.84961 -154.404 6.21582 -230.13 -13.3252z
M306.468 311.144c-54.5371 0.780273 -108.776 -5.24316 -163.224 -6.55469c-0.0253906 -43.3018 0.0878906 -87.2725 8.5166 -129.802c70.334 15.7656 141.729 10.2881 213.384 11.2432c-0.182617 23.4297 3.7666 46.5049 4.03613 69.9961
c0.495117 42.7383 -22.4502 54.5439 -62.7129 55.1172zM465.889 112.682c12.6221 -26.9365 27.3633 -52.8848 43.1025 -78.1406c7.4668 -11.9805 0.251953 -28.2148 -12.9697 -31.877c-150.089 -41.6006 -321.863 -32.5889 -474.558 -13.1172
c-16.6855 2.12793 -26.5557 16.6855 -18.7422 32.6592c13.3252 27.25 36.3135 50.291 44.874 79.6768c-0.389648 93.0449 -5.16504 186.03 -5.44336 279.083c-0.0175781 7.2832 2.92578 12.6221 7.25781 16.1123c3.45508 3.36035 8.21191 5.5918 14.4365 5.59961
c71.291 0.15625 142.554 2.18652 213.835 2.6123c43.3535 0.250977 88.5225 8.44727 131.65 4.41797c81.9492 -7.65625 53.3027 -76.9658 57.7988 -137.44c2.96875 -39.9316 20.7217 -116.648 -1.24219 -159.586zM339.238 363.856
c-83.6523 -6.71973 -169.206 -4.80957 -253.396 -4.61914c0.790039 -79.8584 4.13281 -159.674 4.91504 -239.533c94.416 -2.37793 188.521 8.57812 282.877 6.08594c7.79492 -0.207031 50.5771 -5.98047 53.0156 2.82227c4.16699 15.0527 4.73047 30.5137 4.25391 46.0713
c-0.998047 32.668 -5.38281 64.9971 -7.17969 97.5859c-1.4668 26.4951 3.95996 52.877 2.32715 79.3633c-1.67578 27.1641 -66.4814 13.8564 -86.8125 12.2236zM56.8301 28.7178c130.009 -14.8369 272.094 -20.6787 399.719 8.73438
c-8.95117 15.3223 -17.3896 30.9395 -25.124 46.9043c-2.94336 -0.807617 -6 -1.51074 -9.30664 -1.96191c-54.9346 -7.44922 -114.938 -1.17188 -170.595 -3.5166c-55.6982 -2.35254 -111.363 -4.47852 -167.069 -2.55176
c-7.1875 -16.9023 -17.5801 -32.1289 -27.624 -47.6084zM315.478 61.1758c13.9941 0 13.9941 -21.7012 0 -21.7031h-129.532c-13.9941 0 -13.9941 21.7031 0 21.7031h129.532z" />
    <glyph glyph-name="uniF139" unicode="&#xf139;" 
d="M260.443 372.963c40.1289 0.00878906 71.1172 -28.7246 73.0928 -69.1865c1.71387 -34.958 -19.1074 -76.0518 -56.6289 -82.6016c-49.8525 -8.70703 -104.524 20.6416 -100.438 77.5859c3.22949 45.0361 39.4336 74.5811 83.9736 74.2021zM273.489 267.788
c24.8721 15.9053 19.1348 60.0752 -13.0361 60.0576c-20.5342 0.171875 -41.3369 -11.5742 -38.748 -34.8145c2.57129 -23.0234 30.8535 -38.6221 51.7842 -25.2432zM204.229 439.173c64.3594 20.083 156.562 8.10059 190.086 -58.8486
c18.9639 -37.8545 22.5811 -82.998 11.6836 -123.966c-22.5361 -106.184 -53.3467 -228.121 -122.93 -313.727c-7.46094 -9.17676 -24.3125 -8.49902 -31.8906 0c-80.0947 89.7656 -123.407 193.551 -147.135 310.371c-16.5723 81.5635 16.6182 160.097 100.186 186.17z
M362.497 268.349c24.4473 91.9307 -55.3223 161.171 -146.277 127.323c-87.6357 -32.6045 -76.8447 -117.2 -55.8154 -192.893c21.2354 -76.4316 56.1143 -146.709 105.697 -208.039c53.29 77.7305 77.3955 184.05 96.3955 273.608z" />
    <glyph glyph-name="uniF127" unicode="&#xf127;" 
d="M361.349 443.221c83.8076 0.0947266 148.824 -59.8877 150.612 -145.303c1.5332 -72.7656 -39.749 -156.797 -118.37 -170.302c-33.9551 -5.83398 -68.5479 -3.43262 -99.6064 6.44043c-6.86426 -4.56445 -14.3223 -8.39844 -22.0547 -11.2061
c-51.6758 -68.082 -109.752 -149.631 -192.617 -180.932c-8.39258 -3.1709 -19.0918 0.594727 -25.1387 6.65137c-15.9385 15.9688 -31.8965 31.8984 -46.5117 49.0977c-7.22363 8.49902 -10.8506 21.1865 -4.04297 31.3115c45.457 67.5068 116.13 109.802 181.361 156.142
c1.53906 14.2627 5.11133 28.6699 7.08984 42.666c-6.26855 18.0586 -9.1709 38.3174 -7.87891 60.6543c5.52246 95.5547 83.9912 155.688 177.157 154.779zM78.5986 -2.61426c53.332 25.8896 96.6758 82.1836 132.933 130.533
c-2.58594 1.75684 -5.11914 3.6543 -7.53613 5.93555c-0.342773 0.323242 -0.680664 0.685547 -1.02344 1.01855c-50.6982 -35.1152 -105.543 -68.6895 -143.788 -117.147c6.38867 -6.86523 12.8184 -13.6787 19.415 -20.3398zM407.457 187.654
c86.4326 53.9316 64.418 204.012 -46.1064 203.886c-66.1465 0.652344 -133.694 -42.7871 -125.044 -116.685c8.9834 -76.7324 99.7988 -131.733 171.15 -87.2012zM385.24 359.021c19.6133 -14.9238 0.333008 -48.6064 -19.5615 -33.4648
c-21.6201 16.4414 -58.2822 8.56836 -59.3818 -22.0254c-0.888672 -24.9219 -39.6592 -25.0029 -38.7617 0c1.06152 29.3428 16.8789 54.1172 45 64.3066c23.4277 8.48926 52.458 6.58789 72.7051 -8.81641z" />
    <glyph glyph-name="uniF158" unicode="&#xf158;" 
d="M154.727 167.772c-20.8311 22.3018 12.6152 55.8887 33.502 33.502c32.6973 -35.0459 116.996 -53.5645 142.614 -1.3457c13.457 27.4365 54.3135 3.41211 40.9043 -23.9111c-39.3027 -80.1299 -164.156 -64.9014 -217.021 -8.24512zM68.7383 133.465
c-20.4902 22.5566 12.9268 56.1631 33.5127 33.5039c71.874 -79.1348 260.823 -114.381 315.347 1.99023c12.9658 27.6543 53.8037 3.58203 40.9229 -23.9121c-67.6484 -144.369 -298.288 -112.325 -389.782 -11.582zM468.689 121.136
c12.6904 27.7588 53.5283 3.65723 40.9219 -23.9121c-85.3711 -186.665 -387.166 -143.477 -503.291 -13.7705c-20.3193 22.6797 13.0781 56.3145 33.502 33.502c96.7637 -108.088 356.31 -154.459 428.867 4.18066zM288.679 253.912
c6.05469 -6.33008 9.24023 -15.0117 9.24219 -23.7119c0 -8.48145 -2.85254 -16.4521 -8.01758 -22.4707c-5.94141 -6.9082 -14.5947 -10.7002 -24.375 -10.7002c-21.2686 0 -32.3936 16.6895 -32.3936 33.1709c0 8.47363 2.85254 16.4521 8.0166 22.4707
c0.0478516 0.0664062 0.113281 0.103516 0.170898 0.161133c-1.19531 45.6602 -1.48828 91.3125 1.71484 136.918c2.1416 30.2998 49.5381 30.5176 47.3857 0c-3.18457 -45.2441 -2.91016 -90.5361 -1.74414 -135.838z" />
    <glyph glyph-name="uniF11C" unicode="&#xf11c;" 
d="M118.204 -44.5908c-13.7539 2.22949 -17.8604 13.5693 -15.2598 24.0352c-17.1523 40.8613 -22.4717 84.4473 -31.8877 127.539c-1.60742 7.38965 0.267578 13.5957 3.93262 18.2881c2.78613 4.13184 6.99219 7.31152 12.7266 8.43555
c3.46582 0.975586 7.07812 1.13965 10.5137 0.543945c106.864 0.631836 213.657 7.26855 320.516 2.7666c12.7217 -0.545898 21.208 -9.70605 22.125 -22.125c2.54004 -34.8145 -2.22168 -70.6729 -16.9219 -102.625c-16.8115 -36.541 -30.8115 -54.6309 -70.4561 -63.4551
c-41.46 -9.22168 -83.9883 -14.3896 -126.528 -12.3838c-37.4707 1.77246 -71.96 13.0156 -108.76 18.9805zM396.915 93.4248c-92.5635 2.64453 -185.084 -2.03223 -277.647 -3.18945c5.68262 -31.7793 10.8213 -64.1191 23.9316 -93.4707
c0.128906 -0.311523 0.185547 -0.620117 0.31543 -0.941406c56.9775 -9.79199 109.335 -21.2686 168.546 -10.3525c38.417 7.06836 64.0508 15.5645 76.2285 56.6436c5.11719 17.2666 7.98633 34.0088 8.62598 51.3105zM132.417 152.498
c-10.7861 -0.130859 -17.4697 7.06836 -21.3486 16.2295c-16.335 38.8574 -3.10645 90.1182 12.3203 127.35c20.2754 48.8975 66.1387 85.4473 80.1836 136.124c6.83203 24.6406 42.3848 18.7549 43.4639 -5.88574c3.66406 -83.4922 6.70703 -167.038 5.2373 -250.621
c-0.112305 -6.18945 -2.35449 -10.9502 -5.67383 -14.459c-3.55664 -4.48535 -9.00586 -7.58887 -16.4512 -7.66602c-32.5781 -0.354492 -65.1523 -0.716797 -97.7314 -1.07129zM205.911 346.311c-32.8916 -47.0557 -70.1924 -95.3682 -57.5088 -149.398
c19.9121 0.209961 39.8252 0.44043 59.7383 0.65625c0.423828 49.6016 -0.53125 99.1797 -2.22949 148.742zM293.098 154.234c-5.61719 0.112305 -10.0947 1.96973 -13.5 4.79883c-5.08203 3.50684 -8.67773 9.2207 -8.62598 17.3271
c0.355469 58.377 4.83984 116.604 6.9834 174.916c0.501953 13.5693 13.8896 26.2139 28.0117 21.3389c80.7402 -27.9209 90.2734 -124.586 94.7676 -197.993c0.725586 -11.874 -10.6133 -22.3584 -22.125 -22.124c-28.5049 0.568359 -57.0078 1.16602 -85.5117 1.73633z
M320.486 312.832c-1.87402 -38.2607 -3.95801 -76.5088 -4.80566 -114.796c13.1289 -0.277344 26.2744 -0.539062 39.3936 -0.804688c-2.64551 39.0469 -8.50293 88.1045 -34.5879 115.601z" />
    <glyph glyph-name="uniF12E" unicode="&#xf12e;" 
d="M79.4844 -57.6738c-9.2002 1.05859 -19.6738 5.92578 -21.4619 16.3184c-6.26367 36.6602 -7.00391 73.5615 -4.37793 110.568c-0.0976562 2.1543 0.0439453 4.29883 0.47168 6.41602c9.39648 115.311 50.6572 231.599 60.96 344.969
c0.152344 1.6543 0.47168 3.18555 0.890625 4.64453c0.710938 10.4736 7.76855 20.2334 21.3555 19.8242c63.7891 -1.92969 127.518 4.23535 191.292 2.67969c35.209 -0.871094 68.835 -9.92969 79.3076 -47.9248c33.0742 -120.133 53.833 -249.103 51.7158 -373.595
c-0.623047 -36.4824 -2.39355 -70.5791 -42.6572 -84.0684c-19.0947 -6.39844 -37.3994 -6.56738 -57.126 -5.8916c-45.1309 1.5498 -90.2705 3.10645 -135.394 4.67285c-48.4062 1.66309 -96.8203 -4.14746 -144.977 1.38672zM124.598 208.521
c-7.66113 -37.0693 -16.4443 -74.6816 -22.1113 -112.51c39.5869 4.4043 86.4531 9.83203 107.266 -26.9521c3.75488 -6.63672 1.47559 -26.5332 12.3506 -28.0283c13.6582 -1.87695 27.9844 -1.25391 41.6865 -0.231445c12.8672 0.960938 25.6895 2.33203 38.5029 3.72852
c0.0800781 14.1484 0.0615234 28.2256 1.86035 42.3994c1.53125 12.0303 8.95996 22.2461 22.2451 22.2461h86.7471c-2.09082 24.7549 -4.93164 49.5527 -6.90625 73.498c-4.39551 53.2012 -18.4365 108.646 -30.1553 160.832
c-5.14355 22.8877 -6.21191 58.7373 -36.7402 59.4932c-21.418 0.525391 -42.9424 0.134766 -64.3682 -0.310547c-39.1963 -0.817383 -78.3193 -2.6416 -117.508 -2.33105c-7.09961 -64.6006 -19.71 -128.177 -32.8691 -191.834zM97.5107 50.8115
c-1.42285 -21.8096 -1.30664 -43.6543 1.29102 -65.4697c34.8359 -1.67383 69.2529 2.0293 104.286 0.818359c37.5664 -1.29883 75.126 -2.58984 112.685 -3.88867c20.5898 -0.703125 41.2061 -1.78027 61.7959 -2.12695c39.3926 -0.666992 37.0166 27.5215 38.1113 59.6523
c0.275391 8.19531 0.205078 16.5244 0.00878906 24.8789h-68.5684c-0.399414 -13.3037 -0.142578 -26.6055 -0.693359 -40.041c-0.535156 -13.0811 -9.79785 -20.9648 -22.2461 -22.2461c-42.7373 -4.38574 -90.8936 -15.4287 -131.807 2.10059
c-15.7695 6.76172 -19.7646 46.8389 -30.0059 48.3428c-21.416 3.13086 -43.2266 0.160156 -64.8574 -2.02051z" />
    <glyph glyph-name="uniF118" unicode="&#xf118;" 
d="M94.5361 -41.7871c-55.3916 36.3232 -29.1436 119.711 -29.3984 174.672c-0.421875 94.3301 -2.96582 188.644 -3.12402 282.983c-0.0078125 7.39941 3.01074 12.8125 7.43359 16.3408c3.48438 3.34277 8.2666 5.57324 14.5059 5.59863
c97.3311 0.457031 198.402 15.4102 295.366 8.25586c63.9229 -4.71289 67.9238 -80.9648 68.2578 -131.909c0.484375 -73.127 -4.78223 -144.5 0.0712891 -217.55c2.76367 -41.6309 15.9365 -111.047 -14.4629 -145.896
c-28.1621 -32.2949 -116.7 -1.54395 -152.295 -0.183594c-55.665 2.13281 -135.798 -25.4668 -186.354 7.68848zM108.586 187.269c0.342773 -32.04 1.45703 -64.124 -1.31641 -96.0791c-1.75488 -20.2969 -14.7178 -83.9746 9.39844 -95.085
c49.7236 -22.8965 112.049 2.6416 164.213 -1.69336c12.9443 -1.08008 120.07 -17.5518 121.658 -11.4092c11.3994 44.1514 2.65918 96.042 -0.78125 140.868c-4.125 53.8916 0.983398 106.774 1.80762 160.72c0.5 32.7422 5.80957 84.1953 -13.6191 112.742
c-8.76758 12.8838 -55.252 2.75586 -68.5566 2.69434c-71.8379 -0.341797 -143.554 -4.60645 -215.365 -5.70312c0.367188 -69.0293 1.82422 -138.034 2.56152 -207.055zM152.158 52.4121c-15.1631 9.58398 -14.7422 42.5811 -15.6475 57.7734
c-4.81836 81.6924 8.84668 162.824 9.76758 244.412c0.0361328 3.19531 1.21973 5.625 2.97559 7.37988c0.0615234 0.0791016 0.140625 0.140625 0.201172 0.219727c0.158203 0.140625 0.298828 0.298828 0.464844 0.439453
c1.74805 1.71973 4.16992 2.88574 7.32812 2.92188c66.9238 0.833984 133.4 9.50488 200.035 -0.385742c5.15137 -0.773438 7.51172 -6.14453 8.05566 -10.585c6.52051 -53.6973 1.86035 -106.81 3.6416 -160.604c1.08008 -32.3643 8.42578 -64.8613 6.38965 -97.3223
c-1.13281 -18.0537 -3.15918 -42.3438 -24.0195 -49.1621c-17.876 -5.85449 -33.1895 -2.70312 -51.7334 -3.19531c-24.7744 -0.658203 -50.1797 -4.75586 -74.9277 -3.19434c-21.4395 1.36035 -53.8477 -0.501953 -72.5312 11.3027zM167.92 343.907
c-1.79883 -69.8984 -12.7432 -139.613 -10.5488 -209.583c0.615234 -19.376 -0.219727 -42.5615 6.55566 -60.9209c2.51855 -6.82715 20.2812 -5.125 25.4766 -5.90527c41.8086 -6.30273 81.5977 0.708984 123.3 -1.87012c56.418 -3.49316 40.4736 59.709 36.9014 95.6816
c-3.25586 32.7939 -1.93164 65.2295 -1.7373 98.1475c0.148438 26.4863 0.612305 53.3574 -2.58984 79.7021c-1.5625 12.8555 -57.6299 9.46094 -66.125 9.25c-37.1035 -0.929688 -74.1289 -3.6416 -111.232 -4.50195z" />
    <glyph glyph-name="uniF12D" unicode="&#xf12d;" 
d="M275.572 171.082c44.8857 1.78223 92.2061 0.628906 125.134 -29.7715c39.6143 -36.5615 20.668 -128.477 9.18848 -173.159c-1.69727 -6.5918 -8.05176 -14.1357 -15.1699 -15.1699c-52.8691 -7.61914 -106.188 -16.0967 -159.706 -16.833
c-40.8389 -0.568359 -91.1104 -0.958008 -122.814 28.9922c-33.46 31.6143 -27.6895 111.49 -14.1182 150.607c18.7266 53.9707 83.418 53.4268 130.268 53.5029c0.0527344 0 0.0849609 -0.0166016 0.139648 -0.0166016
c1.20605 0.015625 2.44922 0.0673828 3.67578 0.0927734c-0.619141 27.3037 -0.470703 54.6426 -0.338867 82.002c-32.3486 0.275391 -64.626 -0.758789 -96.7275 -6.00293c-9.35059 -5.62695 -20.1934 -0.645508 -25.9814 8.25098
c-7.17773 9.59082 -7.31348 24 3.22461 30.3154c42.0244 53.0352 79.7695 110.248 128.095 157.886c9.92773 9.79199 27.0547 7.80273 34.1143 -4.39453c35.2451 -60.9766 126.194 -85.0176 133.297 -163.015c1.15234 -12.6689 -10.8184 -20.585 -21.7207 -21.7217
c-36.8672 -3.83984 -73.8701 -3.06836 -110.855 -2.15527c-0.135742 -26.4814 -0.279297 -52.9629 0.296875 -79.4102zM173.382 292.649c61.417 3.66504 123.004 -1.93848 184.545 1.31934c-13.8037 24.8613 -46.0137 45.6318 -64.6973 61.4229
c-13.9482 11.7979 -27.8467 23.6973 -39.7295 37.375c-28.9326 -31.4072 -54.3916 -65.918 -80.1182 -100.117zM371.266 -6.86914c8.37305 36.5781 20.8301 109.097 -9.15527 123.675c-25.1738 12.2441 -55.3037 12.7197 -84.8398 11.3438
c1.01074 -16.4434 2.46973 -32.8623 4.59082 -49.2715c3.58887 -27.7188 -39.9004 -27.3711 -43.4473 0c-2.0332 15.665 -3.45703 31.3447 -4.45508 47.0488c-1.8877 -0.0595703 -3.7793 -0.110352 -5.6377 -0.135742c-0.0888672 0 -0.173828 0.0253906 -0.271484 0.0253906
c-21.7471 0 -54.876 4.09082 -74.0596 -8.17773c-19.4268 -12.415 -19.7061 -33.7207 -20.2627 -54.4229c-1.05957 -38.9111 -2.37109 -73.4707 41.9834 -80.5635c63.9932 -10.2334 131.63 1.02637 195.555 10.4785z" />
    <glyph glyph-name="uniF13D" unicode="&#xf13d;" 
d="M214.724 122.917c-31.6475 15.7637 -33.1182 44.3867 -34.46 76.1992c-2.31543 54.8281 -10.5977 108.876 -9.69629 163.889c-1.21387 3.54688 -1.72949 7.49121 -1.02148 11.875c11.3887 70.1221 88.9941 99.5166 138.279 44.4316
c42.7129 -47.7402 27.9512 -135.347 22.7959 -192.73c-2.75781 -30.7656 -0.0185547 -71.7686 -28.5312 -92.0908c-23.0898 -16.4453 -60.5996 -24.9102 -87.3662 -11.5732zM269.661 393.143c-28.4648 23.6963 -47.4834 2.06934 -54.1279 -22.8867
c0.614258 -2.14941 1.03711 -4.43945 0.991211 -7.04004c-0.865234 -51.5654 7.08594 -101.973 9.2373 -153.308c0.561523 -13.4014 -3.5752 -49.4141 23.1992 -46.749c19.8096 -1.12207 30.9395 10 33.3848 33.375c0.882812 13.1895 2.00293 26.3154 3.18945 39.4873
c2.99609 33.2188 6.57227 67.4297 3.16211 100.759c-1.79199 17.5195 -4.24707 44.0469 -19.0361 56.3623zM104.396 247.207c36.5186 -4.40234 60.417 -21.3984 64.2686 -60.0029c2.38086 -23.833 -2.75586 -64.8652 22.0146 -78.9287
c20.8555 -11.8398 44.7451 -14.165 68.377 -11.7197c20.2119 2.0957 66.1426 5.35938 73.2109 29.2939c6.94922 23.4844 6.58301 46.7666 8.5957 70.8955c3.41992 41.0859 31.4072 48.5029 66.5479 45.8564c29.3574 -2.20508 29.5791 -48.1816 0 -45.958
c-23.1621 1.7373 -21.3877 -1.32324 -21.9678 -24.8535c-0.238281 -9.92676 -1.08496 -19.5605 -2.6377 -29.3682c-2.90332 -18.457 -6.63672 -38.0996 -19.1182 -52.7783c-18.75 -22.0498 -49.5342 -32.0781 -79.0762 -36.4443
c0.0917969 -9.9375 0.625977 -19.8643 1.3418 -29.7822c0.513672 -0.0351562 1.01074 -0.0458984 1.53516 -0.0908203c45.5537 -3.72363 79.9385 -20.0752 120.777 -38.3486c27.0137 -12.0781 3.62207 -51.666 -23.1904 -39.6709
c-32.2256 14.4033 -61.0508 31.1592 -97.5791 32.0596c-52.4033 1.2959 -91.3477 -10.8828 -136.047 -37.8965c-25.4248 -15.3682 -48.5146 24.377 -23.1904 39.6895c36.0039 21.7568 72.1719 37.6025 111.835 42.916c-0.689453 9.39453 -1.19531 18.7871 -1.36914 28.2002
c-33.5215 0.835938 -65.7012 9.25586 -90.0596 34.5791c-13.3291 13.8428 -19.6523 34.9111 -21.9775 53.4678c-2.33594 18.6045 4.56738 59.6816 -22.291 62.9268c-29.0361 3.50195 -29.376 49.5049 0 45.958z" />
    <glyph glyph-name="uniF101" unicode="&#xf101;" 
d="M114.092 115.139c0.362305 0.341797 0.757812 0.665039 1.16113 0.966797c4.09473 3.55371 9.73926 5.60059 17.1289 4.81152c14.9971 -1.60156 29.7754 -4.3125 44.752 -5.9873c5.74805 -0.675781 11.4746 -1.58008 17.1592 -2.71289
c1.72559 0 3.11816 -0.0615234 4.51172 -0.124023c6.31836 12.1064 12.2002 24.4756 17.833 36.8838c18.5215 40.7607 73.4375 118.656 23.4473 152.174c-12.5234 8.3877 -15.7139 22.1377 -9.32227 35.5439c14.6416 30.7314 32.8496 58.9082 40.25 92.5283
c3.17969 14.4473 18.6855 20.9326 31.958 18.1465c76.3672 -15.9717 137.249 -69.6309 129.829 -151.216c-7.40039 -81.3975 -34.4209 -160.321 -76.4814 -230.401c-37.8184 -63.0234 -99.3857 -138.725 -182.509 -128.883
c-38.1318 4.52148 -72.4385 15.4238 -90.6367 51.6436c-17.0254 33.8701 18.4258 80.0869 24.1523 113.334c0.915039 5.34082 3.07617 9.32324 5.89258 12.3154c0.28125 0.332031 0.5625 0.665039 0.874023 0.976562zM149.842 65.75
c-10.6943 -27.4785 -25.5234 -66.0039 2.71191 -72.8047c34.6201 -8.34473 69.8086 -3.16797 97.0908 21.3164c37.6943 33.8291 63.8125 77.0322 85.4082 122.449c21.5234 45.252 39.9512 95.2627 44.5234 145.564c3.08594 33.9736 5.33105 65.8477 -27.2188 87.0703
c-12.6377 8.24121 -25.3789 15.0918 -38.9111 20.4023c-7.53418 -20.4746 -17.7607 -39.6797 -27.791 -59.1982c52.7764 -51.1426 17.0254 -114.997 -10.8496 -178.082c-11.8271 -26.7725 -22.2412 -63.0127 -42.4131 -85.0762
c-16.5039 -18.0508 -55.0498 -7.72168 -82.5508 -1.6416z" />
    <glyph glyph-name="uniF14A" unicode="&#xf14a;" 
d="M298.843 384.825c76.9883 -6.04297 143.587 -48.751 172.111 -124.262c27.4238 -72.6055 20.7236 -162.771 -22.5791 -228.25c-52.0547 -78.7197 -136.396 -106.169 -228.031 -93.2617c-130.871 18.4248 -206.879 121.847 -194.322 253.515
c2.64941 27.8164 46.3975 28.0693 43.7217 0c-11.9785 -125.616 65.7861 -212.52 191.183 -212.938c69.4502 -0.236328 129.517 29.3711 160.489 93.8545c54.6104 113.706 4.16309 256.435 -125.773 267.681c-1.21484 -14.0342 -2.57812 -28.0518 -4.32715 -42.0527
c-0.280273 -2.22168 -0.900391 -4.19727 -1.65332 -6.06934c-3.71582 -11.4014 -15.7139 -20.1377 -28.8828 -13.9287c-3.76855 0.962891 -7.0918 2.89551 -9.50488 5.77148c-31.6289 20.7334 -58.7207 48.7334 -80.6953 79.2793
c-5.2207 7.24902 -3.65527 20.8477 3.41895 26.4873c28.8652 23.0146 64.001 33.3779 94.1699 54.1377c13.4941 9.29395 33.6504 -2.98242 32.8975 -18.8721c-0.647461 -13.7109 -1.40039 -27.4053 -2.22168 -41.0908zM251.736 338.917
c1.45215 16.334 2.61426 32.6865 3.57715 49.0586c-11.7441 -5.5459 -23.5146 -11.002 -34.6113 -17.5781c9.4082 -11.2637 19.8154 -21.9053 31.0342 -31.4805z" />
    <glyph glyph-name="uniF103" unicode="&#xf103;" 
d="M36.5762 -16.2383c-9.42383 -0.0078125 -18.4238 6.55469 -20.7764 15.8145c-25.2637 99.875 -12.7832 205.427 -12.2588 307.207c0.0615234 10.75 6.56445 17.2871 14.4893 19.7168c2.12695 0.896484 4.41797 1.59473 7.0459 1.81738
c20.4922 1.77441 41.0098 2.6709 61.5361 3.12695c0.292969 32.2402 4.97852 60.7676 36.7119 80.0742c35.04 21.3174 90.4004 17.5801 129.593 19.6221c78.9873 4.10938 125.33 -20.8115 144.917 -95.1895c30.8271 -0.758789 61.6211 -3.0752 92.3809 -8.39844
c10.0537 -1.74023 14.8076 -11.8535 15.8066 -20.7676c10.5508 -93.5439 3.42676 -187.528 5.73633 -281.383c0.308594 -12.7129 -10.1133 -20.2598 -21.5352 -21.5342c-5.05664 -0.568359 -10.1289 -0.999023 -15.1855 -1.5332
c-6.4248 -20.9395 -28.1396 -33.8604 -51.8359 -37.7451c-26.5469 -4.35059 -67.9189 -1.4043 -81.0635 26.8828c-50.6475 -3.0332 -101.355 -4.95215 -152.107 -6.08105c0.0429688 -0.543945 0.112305 -1.07715 0.155273 -1.62012
c0.912109 -12.7236 -10.5791 -20.2256 -21.5352 -21.5352c5.40234 0.646484 -2.4873 -0.523438 -2.83301 -0.59375c-2.78223 -0.535156 -5.56445 -1.10156 -8.33008 -1.66309c-6.54688 -1.33496 -13.084 -2.7041 -19.6738 -3.78906
c-12.6787 -2.10156 -26.3145 -4.76367 -39.2178 -3.36914c-21.8447 2.37793 -37.4873 13.0498 -41.4062 31.0186c-6.86523 -0.0175781 -13.7402 -0.0703125 -20.6133 -0.078125zM427.342 291.916c-13.668 0.929688 -27.3555 1.40234 -41.0469 1.51562
c8.18262 -84.7578 5.2373 -170.171 13.1973 -254.938c10.6895 0.835938 21.3613 1.62012 32.0342 2.56738c6.23633 18.2432 16.332 34.5059 29.8301 48.3818c2.19629 2.25684 4.54785 3.79004 6.94238 4.8418c0.320312 44.1621 1.1543 88.3145 -0.102539 132.408
c-0.0703125 0.0527344 -0.155273 0.078125 -0.233398 0.129883c-21.7402 15.583 -42.6465 34.5586 -40.8105 63.8105c0.0175781 0.430664 0.137695 0.852539 0.189453 1.2832zM191.329 28.4746c55.1787 1.25 110.324 3.42871 165.407 6.95117
c-8.31152 85.584 -5.22754 171.851 -13.4453 257.453c-31.2002 -0.957031 -62.4238 -2.76562 -93.6143 -3.79004c-24.8154 -0.80957 -49.6494 -0.791992 -74.4727 -0.646484c0.37793 -85.6094 1.36035 -175.701 16.125 -259.968zM172.474 381.472
c-34.1006 -7.2627 -41.2422 -24.3945 -42.4639 -49.6748c45.1436 -0.0517578 90.2969 -1.04199 135.406 1c29.2168 1.31738 58.3652 2.73926 87.4619 3.27344c-13.7725 40.457 -38.2432 55.2217 -89.4785 52.542c-30.0186 -1.56738 -61.4062 -0.861328 -90.9258 -7.14062z
M44.707 233.903c-1.93848 -53.1465 -3.88477 -106.818 1.65332 -159.326c23.4805 -7.10645 43.5078 -22.043 52.6123 -46.3164c0.137695 -0.37793 0.155273 -0.774414 0.267578 -1.16211c16.2021 0.120117 32.4229 0.292969 48.6328 0.525391
c-13.9287 85.1367 -15.2812 175.013 -15.7285 261.045c-6.21191 0.0175781 -12.4033 0.0175781 -18.6152 -0.0175781c-3.08301 -0.610352 -6.2959 -0.65332 -9.39746 -0.0771484c-5.81348 -0.0605469 -11.6289 -0.137695 -17.4424 -0.267578
c0.078125 -2.10156 -0.0419922 -4.29004 -0.636719 -6.63281c-5.71191 -22.291 -23.042 -35.9365 -41.3457 -47.7705z" />
    <glyph glyph-name="uniF112" unicode="&#xf112;" 
d="M297.315 346.961c-19.3848 6.10742 -59.9473 18.1143 -76.249 -1.95703c-22.3516 -27.4961 36.9746 -64.3369 56.8838 -69.4238c3.88477 -0.993164 7.01562 -2.66211 9.51562 -4.7627c16.9316 -2.19531 33.1084 -4.77148 46.957 -6.1748
c2.66211 -0.277344 5.02051 -0.993164 7.22363 -1.88965c9.00879 -2.55859 16.5303 -9.84082 16.6357 -21.9717c0.629883 -73.251 12.876 -154.356 -13.6572 -224.697c-22.0273 -58.4004 -97.0059 -111.466 -155.406 -57.9424
c-33.6611 30.8457 -40.0186 82.0215 -42.7383 125.247c-2.60645 41.4404 -7.01562 87.9111 0.0664062 129.064c5.91699 34.3486 25.998 50.8418 52.0156 57.8379c-25.1104 25.9404 -39.8643 60.1279 -22.3994 92.4922c13.4854 24.9873 39.1025 36.6406 66.627 39.1025
c13.6572 1.22266 29.7012 2.31934 43.1104 -1.44043c10.6045 -2.97852 47.626 -12.9131 30.3223 12.6738c-17.3125 25.5596 24.0605 49.4102 41.1924 24.0801c30.999 -45.8105 -2.08105 -108.535 -60.0996 -90.2383zM311.316 219.623
c-13.6592 1.72656 -27.4492 3.5498 -41.25 4.90625c0.399414 -23.0693 2.98633 -46.0039 3.12988 -69.0527c13.7041 -0.993164 27.4004 -2.08984 41.1064 -3.34961c-0.513672 25.1299 -2.03223 48.8574 -2.98633 67.4961zM313.684 104.463
c-41.0596 3.76074 -82.1094 6.375 -123.319 7.05273c-0.00878906 -51.9492 5.21191 -112.401 35.3418 -120.428c65.5869 -17.4844 84.208 44.6387 87.9775 113.375zM222.021 226.236c-29.1572 -1.53711 -30.4658 -19.5654 -30.1689 -46.3545
c0.0576172 -5.09766 -0.162109 -12.2168 -0.439453 -20.6641c11.3574 -0.191406 22.7246 -0.515625 34.0723 -1.00195c-0.325195 22.6963 -2.91992 45.2861 -3.19727 68.0205h-0.266602z" />
    <glyph glyph-name="uniF131" unicode="&#xf131;" 
d="M505.764 342.522c-1.86035 -41.0234 -2.39844 -79.6992 0.214844 -120.704c3.40625 -53.71 7.59473 -107.97 5.42188 -161.816c-1.42871 -35.2783 -1.14648 -73.1025 -32.5674 -94.6465c-22.7393 -15.584 -60.376 -7.32129 -85.6406 -7.44922
c-40.2607 -0.205078 -80.4922 -1.45801 -120.725 -3.14258c-80.4717 -3.37793 -160.935 -7.32129 -241.457 -3.38672c-13.3428 0.645508 -24.4521 10.6416 -24.4727 24.4717c-0.253906 141.418 -6.28418 282.767 -6.53809 424.184
c-0.00878906 8.15332 3.27051 14.1533 8.11523 18.0977c3.90527 3.80859 9.29883 6.35352 16.3662 6.37305c91.7793 0.176758 183.528 3.04492 275.308 3.22168c51.0889 0.107422 104.506 12.4219 155.19 2.98535c47.4375 -8.84863 52.7422 -45 50.7842 -88.1875z
M123.838 376.118c-1.14648 -29.6416 -4.66992 -59.2607 0.175781 -88.2363c60.6523 12.4307 126.491 9.18262 187.161 3.66113c32.0088 -2.92676 61.0527 -8.04492 56.001 34.124c-2.27148 18.9326 -5.68652 37.707 -7.36035 56.6865
c-78.585 -3.65137 -157.266 -5.49219 -235.978 -6.23535zM344.229 2.67871c-5.11816 43.6289 9.4668 90.3691 -3.26074 131.913c-7.07617 23.0928 -121.79 10.0244 -172.124 2.42773c4.68848 -46.2305 4.54297 -92.3857 4.27832 -138.921
c57.0391 0.595703 114.205 2.57422 171.106 4.58008zM460.812 32.8076c1.59668 19.333 2.19434 38.7158 1.96582 58.1182c-0.509766 43.6875 -2.95508 87.3057 -5.75586 130.905c-1.87891 29.2578 -4.16992 58.0166 -2.14355 87.3057
c1.44922 21.0059 6.62695 47.9834 1.05664 68.6084c-2.3877 8.84863 -29.5508 8.28906 -47.4453 7.16406c4.55078 -49.7275 29.1514 -126.059 -35.8555 -142.749c-29.3857 -7.5459 -65.0166 0.871094 -95.0479 1.75293c-55.6113 1.63477 -110.771 6.41113 -164.95 -9.13281
c-13.5381 -3.88574 -25.6572 4.65039 -30.1006 17.0918c-14.4766 40.5146 -9.13379 81.9111 -7.64453 123.943c-8.56738 -0.0390625 -17.1318 -0.0986328 -25.6963 -0.12793c0.782227 -125.421 5.27637 -250.805 6.03906 -376.229
c22.9355 -0.833008 45.9287 -1.36035 68.9814 -1.48828c0.489258 51.0293 1.57617 102.067 -5.78418 152.743c-1.81055 12.4219 2.85938 27.2314 17.0918 30.0996c46.2812 9.33887 92.7871 7.81152 139.606 11.7559c29.3965 2.47656 68.0898 8.75 93.0322 -11.5215
c47.6133 -38.6846 14.8887 -123.924 25.1865 -176.687c12.5986 0.421875 25.207 0.842773 37.7656 1.2041c25.7334 0.734375 27.6914 2.89746 29.6982 27.2422zM283.147 105.011c0.294922 15.7598 24.7764 15.7979 24.4619 -0.0107422
c-0.410156 -21.7891 -5.73535 -43.7256 -0.430664 -65.2617c3.76855 -15.3184 -19.8232 -21.8193 -23.6006 -6.50879c-5.9209 24.0508 -0.891602 47.4961 -0.430664 71.7812z" />
    <glyph glyph-name="uniF11F" unicode="&#xf11f;" 
d="M408.021 207.606c1.57617 -40.1787 4.73535 -80.2227 6.93848 -120.361c1.94434 -35.7988 15.752 -98.957 -1.63574 -132.872c-15.6152 -30.4463 -80.6738 -13.9189 -106.196 -13.6865c-37.1016 0.334961 -74.0693 2.61719 -111.127 4.26855
c-21.4814 0.964844 -54.0664 -5.62793 -73.9814 4.26172c-18.3691 9.1416 -28.1016 27.624 -26.4785 48.2656c2.51465 31.7539 0.318359 63.4922 0.107422 95.2988c-0.537109 78.4102 -5.42285 156.761 -5.64258 235.21c-0.0429688 15.0723 12.3311 22.0615 23.9775 21.1445
c2.92285 1.91113 6.37012 3.26953 10.5146 3.64941c0.818359 0.0693359 1.65918 0.142578 2.47559 0.219727c-0.261719 10.8154 -0.463867 21.6143 0.125 32.4473c0.986328 18.0771 1.86816 40.8203 15.6797 54.3857c20.1514 19.7891 46.1006 -0.15918 55.5078 -20.042
c7.61426 -16.0977 14.8154 -40.2939 11.5264 -60.3301c46.3594 2.83105 93.2871 4.14453 137.995 2.37109c42.2754 -1.6748 62.0732 -12.2148 64.4658 -57.4893c1.71289 -32.4561 -5.50879 -64.4785 -4.25195 -96.7412zM366.426 -18.1943
c13.9795 0.655273 8.79883 5.93164 7.89258 19.1182c-2.33203 34.4326 -2.30664 69.0449 -4.63867 103.538c-3.0752 45.5615 -7.58496 91.2441 -3.65137 136.846c2.15332 24.873 5.31152 50.5068 -0.644531 74.8164c-31.7021 5.13086 -65.876 -1.73438 -97.5977 -2.21191
c-44.585 -0.662109 -89.0879 -0.916016 -133.54 -4.49219c0.881836 -92.5371 6.03027 -184.96 6.64648 -277.506c0.107422 -15.8643 -9.15918 -42.791 11.4131 -42.0498c19.8262 0.697266 39.5977 -0.576172 59.3975 -1.61816
c35.7656 -1.87793 71.8789 -1.42871 107.562 -4.1416c15.5879 -1.18945 31.5215 -3.04004 47.1611 -2.29883zM302.177 176.829c-47.5127 -2.9707 -96.3799 -11.1553 -143.259 0.791016c-4.87305 1.23047 -7.91504 5.76562 -8.09277 10.6211
c-1.03613 28.5957 -0.167969 57.1709 0 85.7754c0.0273438 4.03809 1.85059 6.89062 4.41699 8.62891c0.193359 0.169922 0.425781 0.293945 0.636719 0.44043c0.0507812 0.0341797 0.102539 0.0732422 0.158203 0.107422c1.55859 1.0498 3.46973 1.75195 5.80664 1.8418
c32.1035 1.1543 64.1982 2.65137 96.2207 5.2168c18.082 1.45508 47.2803 10.0752 65.0117 2.74121c25.7031 -10.6299 17.3955 -46.999 20.7031 -69.4746c5.90625 -40.1396 -4.19238 -44.3574 -41.6025 -46.6895zM172.769 263.52
c-0.241211 -22.1084 -0.621094 -44.2051 -0.0908203 -66.3115c32.7852 -6.59863 66.7207 -3.1377 99.8369 -0.494141c15.4844 1.24219 30.8076 2.35352 46.3271 2.24609c10.9062 -0.0693359 1.68555 29.3799 1.16895 35.7705
c-0.868164 10.8936 -0.188477 22.126 -1.60938 32.9551c-1.2627 9.6875 -29.9287 3.10254 -36.5908 2.53027c-36.2871 -3.17969 -72.6465 -5.24902 -109.042 -6.69629zM212.477 143.782c3.97656 -5.26855 3.91211 -14.3564 4.29102 -20.5898
c0.386719 -6.18164 0.779297 -12.542 -0.395508 -18.6543c-0.641602 -3.40918 -4.23926 -7.11914 -7.69531 -7.69531c-6.46094 -1.09375 -12.9561 -2.18652 -19.4805 -2.81445c-5.80566 -0.551758 -14.7197 -1.74023 -19.751 2.06445
c-13.4463 10.124 -10.3086 27.2871 -10.124 42.1201c0.0390625 3.03711 1.10156 5.37988 2.69824 7.11035c1.77441 2.30762 4.51562 3.90723 8.32031 3.90723c13.5068 0 32.29 7.60938 42.1367 -5.44824zM192.536 116.452
c0.821289 0.102539 1.62207 0.266602 2.44336 0.386719c-0.0566406 2.12793 -0.0820312 4.25293 -0.241211 6.3623c-0.144531 2.14258 -0.321289 4.31348 -0.615234 6.21582c-3.95898 0.212891 -8.5293 -0.473633 -13.1221 -1.1543
c-0.0908203 -2.11035 -0.198242 -4.22754 -0.141602 -6.33594c0.0429688 -2.12598 0.0683594 -4.26172 0.597656 -6.32812c0.943359 0.0107422 1.91016 0.0273438 2.86719 0.0791016c2.75098 0.180664 5.49316 0.421875 8.21191 0.774414zM279.115 143.782
c3.96973 -5.26855 3.89941 -14.3564 4.29199 -20.5898c0.397461 -6.18164 0.775391 -12.542 -0.395508 -18.6543c-0.636719 -3.40918 -4.22559 -7.11914 -7.69531 -7.69531c-6.45312 -1.09375 -12.9502 -2.18652 -19.4736 -2.81445
c-5.81055 -0.551758 -14.7197 -1.74023 -19.7559 2.06445c-13.4492 10.124 -10.3115 27.2871 -10.126 42.1201c0.0380859 3.03711 1.10059 5.37988 2.69727 7.11035c1.77539 2.30762 4.51562 3.90723 8.32031 3.90723c13.5156 0 32.29 7.60938 42.1367 -5.44824z
M259.167 116.452c0.821289 0.102539 1.63086 0.266602 2.44043 0.386719c-0.0507812 2.12793 -0.0771484 4.25293 -0.236328 6.3623c-0.160156 2.14258 -0.328125 4.31348 -0.616211 6.21582c-3.95801 0.212891 -8.5332 -0.473633 -13.127 -1.1543
c-0.0859375 -2.11035 -0.193359 -4.22754 -0.137695 -6.33594c0.0517578 -2.12598 0.0693359 -4.26172 0.597656 -6.32812c0.943359 0.0107422 1.91113 0.0273438 2.86328 0.0791016c2.74902 0.180664 5.48145 0.421875 8.21582 0.774414zM345.75 143.782
c3.96777 -5.26855 3.9082 -14.3564 4.29297 -20.5898c0.388672 -6.18164 0.774414 -12.542 -0.395508 -18.6543c-0.644531 -3.40918 -4.22559 -7.11914 -7.69531 -7.69531c-6.46484 -1.09375 -12.9541 -2.18652 -19.4795 -2.81445
c-5.81055 -0.551758 -14.7197 -1.74023 -19.7559 2.06445c-13.4365 10.124 -10.3037 27.2871 -10.1143 42.1201c0.0351562 3.03711 1.10156 5.37988 2.69434 7.11035c1.77539 2.30762 4.52051 3.90723 8.3252 3.90723c13.4961 0 32.2793 7.60938 42.1279 -5.44824z
M325.806 116.452c0.818359 0.102539 1.62695 0.266602 2.43652 0.386719c-0.0517578 2.12793 -0.0683594 4.25293 -0.232422 6.3623c-0.147461 2.14258 -0.328125 4.31348 -0.611328 6.21582c-3.95996 0.212891 -8.54004 -0.473633 -13.1357 -1.1543
c-0.0878906 -2.11035 -0.189453 -4.22754 -0.138672 -6.33594c0.0507812 -2.12598 0.0869141 -4.26172 0.603516 -6.32812c0.945312 0.0107422 1.91016 0.0273438 2.85645 0.0791016c2.75586 0.180664 5.49219 0.421875 8.22168 0.774414zM212.477 70.916
c3.97656 -5.25977 3.91211 -14.3672 4.29102 -20.5898c0.386719 -6.18262 0.779297 -12.5264 -0.395508 -18.6543c-0.641602 -3.40918 -4.23926 -7.11914 -7.69531 -7.69531c-6.46094 -1.09375 -12.9561 -2.17871 -19.4805 -2.80664
c-5.80566 -0.557617 -14.7197 -1.7373 -19.751 2.05859c-13.4463 10.1318 -10.3086 27.2959 -10.124 42.1279c0.0390625 3.0293 1.10156 5.37891 2.69824 7.10059c1.77441 2.31543 4.51562 3.91602 8.32031 3.91602c13.5068 0 32.29 7.60059 42.1367 -5.45703z
M192.536 43.5859c0.821289 0.101562 1.62207 0.266602 2.44336 0.386719c-0.0566406 2.11719 -0.0820312 4.24316 -0.241211 6.35352c-0.144531 2.15234 -0.321289 4.32031 -0.615234 6.21484c-3.95898 0.223633 -8.5293 -0.464844 -13.1221 -1.14551
c-0.0908203 -2.11914 -0.198242 -4.23535 -0.141602 -6.33496c0.0429688 -2.11719 0.0683594 -4.27734 0.597656 -6.32715c0.943359 0.0078125 1.91016 0.0253906 2.86719 0.078125c2.75098 0.170898 5.49316 0.421875 8.21191 0.774414zM279.115 70.916
c3.96973 -5.25977 3.89941 -14.3672 4.29199 -20.5898c0.397461 -6.18262 0.775391 -12.5264 -0.395508 -18.6543c-0.636719 -3.40918 -4.22559 -7.11914 -7.69531 -7.69531c-6.45312 -1.09375 -12.9502 -2.17871 -19.4736 -2.80664
c-5.81055 -0.557617 -14.7197 -1.7373 -19.7559 2.05859c-13.4492 10.1318 -10.3115 27.2959 -10.126 42.1279c0.0380859 3.0293 1.10059 5.37891 2.69727 7.10059c1.77539 2.31543 4.51562 3.91602 8.32031 3.91602c13.5156 0 32.29 7.60059 42.1367 -5.45703z
M259.167 43.5859c0.821289 0.101562 1.63086 0.266602 2.44043 0.386719c-0.0507812 2.11719 -0.0771484 4.24316 -0.236328 6.35352c-0.160156 2.15234 -0.328125 4.32031 -0.616211 6.21484c-3.95801 0.223633 -8.5332 -0.464844 -13.127 -1.14551
c-0.0859375 -2.11914 -0.193359 -4.23535 -0.137695 -6.33496c0.0517578 -2.11719 0.0693359 -4.27734 0.597656 -6.32715c0.943359 0.0078125 1.91113 0.0253906 2.86328 0.078125c2.74902 0.170898 5.48145 0.421875 8.21582 0.774414zM345.75 70.916
c3.96777 -5.25977 3.9082 -14.3672 4.29297 -20.5898c0.388672 -6.18262 0.774414 -12.5264 -0.395508 -18.6543c-0.644531 -3.40918 -4.22559 -7.11914 -7.69531 -7.69531c-6.46484 -1.09375 -12.9541 -2.17871 -19.4795 -2.80664
c-5.81055 -0.557617 -14.7197 -1.7373 -19.7559 2.05859c-13.4365 10.1318 -10.3037 27.2959 -10.1143 42.1279c0.0351562 3.0293 1.10156 5.37891 2.69434 7.10059c1.77539 2.31543 4.52051 3.91602 8.3252 3.91602c13.4961 0 32.2793 7.60059 42.1279 -5.45703z
M325.806 43.5859c0.818359 0.101562 1.62695 0.266602 2.43652 0.386719c-0.0517578 2.11719 -0.0683594 4.24316 -0.232422 6.35352c-0.147461 2.15234 -0.328125 4.32031 -0.611328 6.21484c-3.95996 0.223633 -8.54004 -0.464844 -13.1357 -1.14551
c-0.0878906 -2.11914 -0.189453 -4.23535 -0.138672 -6.33496c0.0507812 -2.11719 0.0869141 -4.27734 0.603516 -6.32715c0.945312 0.0078125 1.91016 0.0253906 2.85645 0.078125c2.75586 0.170898 5.49219 0.421875 8.22168 0.774414z" />
    <glyph glyph-name="uniF104" unicode="&#xf104;" 
d="M304.004 402.277c30.9277 -16.4434 21.6855 -64.8662 22.9629 -92.5801c4.96094 -107.077 18.0312 -216.347 -4.29883 -322.309c-2.10352 -9.96777 -12.2256 -16.3975 -21.8672 -16.6426c-31.4258 -0.817383 -80.6367 -11.2197 -105.852 14.8369
c-27.208 28.124 -26.7646 66.9521 -23.5898 103.929c8.6709 101.062 -2.75684 201.899 -3.35547 303.144c-0.0449219 8.0625 3.42871 13.8223 8.39941 17.4404c3.53711 3.10156 8.25293 5.15137 14.2754 5.23242c38.4824 0.499023 78.2158 5.62305 113.325 -13.0508z
M281.91 14.8945c13.6494 78.208 7.19141 159.045 2.69434 237.824c-1.99609 35.0908 -0.807617 71.0693 -4.00098 105.97c-1.35156 14.8379 -40.0615 14.2676 -66.8613 12.7061c1.74121 -74.7236 9.50488 -149.685 7.29199 -224.318
c-0.933594 -31.7266 -7.87207 -63.9141 -5.54102 -95.667c3.01953 -41.0137 35.4531 -38.9541 66.417 -36.5146zM23.1611 -25.8828c-9.77637 2.68457 -16.5781 11.7812 -16.6533 21.8613c-0.544922 83.4951 -11.4102 167.634 -3.83691 250.984
c0.353516 3.91699 1.55078 7.26367 3.25684 10.1299c3.23828 6.86523 9.66016 12.208 19.418 12.543c37.6221 1.30566 104.538 23.3535 116.292 -29.3047c10.7207 -48.0146 4.46191 -99.5117 5.14258 -148.316c0.390625 -27.4268 25.3223 -114.007 -20.207 -120.709
c-32.1963 -4.7334 -71.6777 -5.87793 -103.412 2.81152zM46.6436 225.663c-3.90039 -70.1348 3.21973 -140.733 4.8457 -210.95c18.4209 -2.38477 38.9541 -1.66797 55.96 -0.317383c0.416992 0.0371094 0.770508 0.00878906 1.12402 -0.0175781
c-0.833984 2.04102 -1.72266 5.0791 -2.54004 9.63086c-0.862305 4.87109 -1.74219 9.74219 -2.6582 14.6025c-4.08984 22.0391 -1.98535 46.7354 -2.04102 69.1016c-0.0898438 33.2031 2.83789 67.3955 -0.290039 100.481
c-2.47656 26.167 -8.42578 20.9512 -32.3428 19.2734c-7.36523 -0.516602 -14.7109 -1.1875 -22.0576 -1.80469zM366.702 348.521c40.7217 7.9541 134.086 20.5527 140.117 -41.5117c10.0234 -103.296 -4.00879 -209.21 5.11523 -313.275
c1.06055 -12.0811 -11.1201 -23.0107 -22.6748 -22.6748c-36.0508 1.05176 -71.6133 -4.32617 -107.565 0c-9.15137 1.09668 -20.3428 6.0127 -21.8672 16.6426c-7.67188 53.4121 -4.54395 108.156 -6.2666 162.03c-1.88574 58.9609 -3.35547 117.933 -3.5 176.93
c-0.00976562 1.23438 0.181641 2.34961 0.334961 3.4834c0.34375 8.44434 5.28809 16.2266 16.3066 18.376zM461.163 219.94c0.134766 16 11.7275 84.4307 -12.2695 87.9697c-17.5137 2.57422 -35.6182 2.0127 -53.2852 -0.345703
c0.316406 -47.2617 1.26074 -94.5244 2.77441 -141.76c1.58789 -49.5479 -1.75098 -101.29 3.3916 -150.847c21.043 -0.744141 42.0117 0.716797 63.0801 1.32422c-4.7168 67.8223 -4.26367 135.663 -3.69141 203.658z" />
    <glyph glyph-name="uniF135" unicode="&#xf135;" 
d="M476.763 -45.1846c-0.166016 -8.96582 -7.28027 -16.1689 -16.2832 -16.292c-82.8311 -1.10156 -165.618 3.03418 -248.441 2.19043c-40.3564 -0.416992 -109.173 -16.4717 -143.891 13.1543c-31.1992 26.6289 -31.8516 78.7129 -32.2939 116.385
c-0.772461 64.499 6.68945 129.381 -1.88477 193.586c-1.27734 9.62695 5.03809 14.6748 12.4502 15.3516c1.18945 0.424805 2.45801 0.755859 3.83984 0.9375c30.7217 3.99707 62.0576 5.18652 93.5527 5.30859c-16.3506 6.73242 -31.4932 15.3691 -43.8564 27.6445
c-25.6826 25.5 -45.9336 85.5166 -10.8076 113.058c35.0547 27.4883 89.7461 16.3174 121.812 -11.6943c16.1172 -14.0732 28.6357 -31.1201 37.8711 -49.8428c4.59766 23.6484 13.8408 45.5684 32.4854 62.1543c32.9365 29.3135 95.3252 29.5039 123.094 -7.03516
c49.1211 -64.6133 -6.30762 -109.877 -65.9688 -136.924c41.0244 -1.20703 81.9531 -3.97852 122.691 -9.74805c7.37695 -1.04297 11.5293 -9.14941 11.9639 -15.708c6.61914 -100.765 5.55078 -201.614 3.66602 -302.525zM291.125 388.669
c-14.8896 -28.2363 -14.5693 -62.2949 -14.126 -94.1699c40.5723 11.9209 138.973 44.9443 109.824 93.4492c-20.0254 33.3271 -75.5078 39.0088 -95.6982 0.720703zM107.574 397.296c-31.6338 -69.0781 75.8633 -90.7734 127.602 -104.612
c-2.58984 31.6846 -12.8057 64.6641 -34.9609 87.1406c-14.9707 15.1953 -76.7676 52.1113 -92.6406 17.4717zM444.46 -28.9639c1.59863 90.7188 2.17188 181.396 -3.14648 271.994c-55.0576 7.01855 -110.911 8.57422 -166.445 8.0791
c12.1631 -46.7412 38.2529 -114.985 77.2451 -103.969c20.2607 5.72656 28.8447 -25.708 8.66211 -31.4072c-60.9209 -17.2109 -97.9131 58.3398 -114.942 117.723c-22.4766 -45.8818 -28.6787 -121.183 -83.4229 -115.413c-20.6689 2.18066 -20.8867 34.7773 0 32.5801
c24.7275 -2.60547 35.2139 51.373 41.8682 68.4961c4.12598 10.6357 8.49609 21.4512 13.7959 31.6338c-49.9814 0.538086 -100.346 3.1709 -149.989 -1.36426c4.82227 -50.2754 0.538086 -100.589 0.251953 -151.066
c-0.181641 -32.8057 -9.42578 -118.886 36.7422 -125.689c55.6035 -8.2002 116.767 1.2002 173.074 0.270508c55.4385 -0.919922 110.86 -2.24121 166.307 -1.86719z" />
    <glyph glyph-name="uniF156" unicode="&#xf156;" 
d="M407.864 345.017c9.06055 0.360352 20.2041 -7.03125 21.6484 -16.4863c8.92676 -58.3926 5.00293 -119.741 3.51172 -178.539c-1.37305 -54.165 -1.40918 -109.317 -7.83789 -163.194c-5.79199 -48.5781 -78.6426 -48.6953 -115.243 -50.0059
c-61.7148 -2.21777 -124.591 0.0439453 -185.749 9.05957c-6.93262 1.02441 -14.4854 8.86426 -15.6787 15.6797c-20.1055 115.718 -28.0244 240.768 -25.5283 358.065c0.0703125 3.28711 0.770508 6.14355 1.84863 8.68457
c2.11035 8.57422 8.89844 15.2197 20.5986 13.7646c53.2754 -6.63672 105.823 3.45703 159.152 2.81055c47.7637 -0.583008 95.5332 -1.69727 143.277 0.161133zM382.543 13.2334c5.82715 92.1035 17.123 193.634 5.96094 286.419
c-41.3057 -0.942383 -82.6025 -0.0625 -123.917 0.305664c-45.8857 0.413086 -91.2578 -6.8252 -136.964 -4.63379c-0.952148 -101.451 5.66602 -208.154 21.9902 -307.971c49.541 -6.33984 100.913 -7.80176 150.516 -6.01562
c23.7773 0.853516 59.7217 -1.58789 80.8604 11.6914c0.00976562 0.117188 0.00976562 0.198242 0.0175781 0.324219c0.601562 6.61621 1.11328 13.2451 1.53613 19.8799zM425.67 409.705c28.9502 0.0361328 28.9502 -44.8604 0.0117188 -44.8887
c-113.125 -0.115234 -226.222 -2.28027 -339.345 -2.39746c-28.959 -0.0273438 -28.959 44.8711 0 44.8975c29.9102 0.0263672 59.8115 0.206055 89.7227 0.449219c13.6221 31.1758 34.8496 40.5068 71.1172 40.2275c40.4346 -0.313477 68.8711 -5.05469 92.6318 -38.7012
c28.6172 0.214844 57.2344 0.386719 85.8613 0.413086zM183.593 187.337c0.162109 -47.9053 2.35254 -95.7021 7.15723 -143.366c1.44434 -14.4023 -21.0137 -14.2588 -22.4492 0c-4.79688 47.6621 -6.99512 95.4609 -7.15723 143.366
c-0.0527344 14.4756 22.3945 14.4756 22.4492 0zM219.088 256.695c-0.600586 14.4844 21.8486 14.4297 22.4492 0c2.94531 -71.7188 7.50684 -143.304 7.76758 -215.112c0.0527344 -14.4746 -22.3945 -14.4746 -22.4492 0
c-0.260742 71.8008 -4.82227 143.394 -7.76758 215.112zM298.288 187.337c0.169922 -47.9053 2.36035 -95.7021 7.16504 -143.366c1.4541 -14.4023 -21.0137 -14.2588 -22.4502 0c-4.80371 47.6621 -6.99414 95.4609 -7.16504 143.366
c-0.0527344 14.4756 22.3955 14.4756 22.4502 0zM333.792 256.695c-0.591797 14.4844 21.8574 14.4297 22.4502 0c2.94434 -71.7188 7.50586 -143.304 7.76758 -215.112c0.0527344 -14.4746 -22.3955 -14.4746 -22.4492 0
c-0.261719 71.8008 -4.82324 143.394 -7.76855 215.112z" />
    <glyph glyph-name="uniF145" unicode="&#xf145;" 
d="M502.523 342.813c15.8945 -6.81934 10.0225 -30.9609 -4.55469 -34.9551c-41.1768 -11.2441 -113.408 -10.7139 -140.598 -48.8838c-0.00976562 -0.225586 0.0410156 -0.407227 0.0205078 -0.652344c-4.68945 -70.4053 0.774414 -141.536 -15.9756 -210.667
c-3.11816 -12.9072 -22.9268 -19.8711 -31.9502 -8.44238c-21.54 27.3525 -45.1426 52.9512 -68.0195 79.1826c-29.3418 -45.8652 -47.8955 -96.5957 -58.0498 -150.599c-3.12988 -16.6387 -27.2217 -18.1885 -34.9385 -4.56738
c-34.541 61.0254 -47.1719 131.086 -70.6094 196.598c-28.3125 79.1533 -60.6904 156.869 -77.4512 239.559c-0.103516 0.489258 -0.0830078 0.9375 -0.15332 1.41699c-0.113281 0.694336 -0.172852 1.3877 -0.213867 2.06934
c-0.0205078 0.499023 -0.0419922 0.988281 -0.0205078 1.46777c0.03125 0.785156 0.112305 1.54102 0.245117 2.31543c0.0810547 0.561523 0.163086 1.12207 0.305664 1.66211c0.142578 0.519531 0.326172 1.04004 0.519531 1.55957
c0.212891 0.640625 0.438477 1.28418 0.722656 1.88574c1.18359 2.52637 2.89648 4.79102 4.94531 6.69727c2.40625 6.50391 8.09473 11.6025 17.1582 11.4893c47.375 -0.580078 93.2314 -7.2793 140.188 -12.2656c43.9502 -4.66895 86.0547 -5.18848 129.312 -15.9756
c70.0381 -17.4521 142.432 -30.2578 209.117 -58.8945zM159.202 29.8105c12.499 41.4727 30.6855 80.8457 55.2666 116.844c-59.2734 54.4922 -105.73 120.584 -156.247 183.109c15.1094 -48.2812 33.4805 -95.4844 50.5977 -143.309
c18.2275 -50.9648 30.2578 -105.854 50.3828 -156.645zM311.421 96.4248c6.63672 50.7393 4.5166 102.406 7.30957 153.553c-46.8652 27.6279 -96.3086 53.8398 -144.317 79.1533c-32.165 16.9551 -69.6113 35.5098 -106.699 48.9355
c59.8643 -71.2109 111.644 -149.567 181.631 -211.44c1.33496 -0.9375 2.65039 -2.04004 3.88379 -3.50781c0.876953 -0.764648 1.64258 -1.69238 2.32422 -2.69141c18.2793 -21.6318 37.375 -42.5518 55.8682 -64.002zM330.557 287.23
c21.9189 26.9463 56.6436 37.2422 92.2002 44.3389c-51.0654 15.6377 -104.854 26.3535 -155.573 37.0879c-37.3018 7.87988 -77.624 13.3252 -118.219 16.9541c15.5479 -7.59473 30.6162 -15.5166 44.7354 -23.458c45.1953 -25.4355 91.9385 -49.0264 136.856 -74.9229z
" />
    <glyph glyph-name="uniF13E" unicode="&#xf13e;" 
d="M92.8789 -45.084c-54.1934 35.543 -27.1787 121.119 -27.4307 174.728c-0.433594 96.9902 -3.0498 193.964 -3.21191 290.964c-0.00878906 5.70312 2.31934 9.88086 5.73047 12.5967c2.6875 2.5791 6.37793 4.30273 11.1875 4.32129
c100.078 0.477539 203.997 15.8447 303.694 8.47852c61.7295 -4.54688 64.2275 -81.5068 64.5527 -129.988c0.498047 -75.1895 -4.91699 -148.576 0.0732422 -223.686c2.69922 -40.6582 16.6123 -111.825 -13.2188 -146.022
c-12.6963 -14.5625 -46.9131 -9.85352 -62.9834 -8.49121c-29.8301 2.53711 -59.7422 8.82617 -89.627 9.96191c-55.9707 2.13867 -137.966 -26.1768 -188.767 7.1377zM98.8428 185.559c0.352539 -32.9434 1.49805 -65.9316 -1.34473 -98.7764
c-2.03906 -23.5771 -15.6465 -89.6992 12.4521 -102.639c52.5244 -24.1934 116.67 2.05664 171.685 -2.51855c14.8896 -1.23633 126.759 -22.1973 130.531 -7.58789c11.8574 45.9648 2.96973 99.6807 -0.603516 146.339c-4.24219 55.4121 1.01074 109.786 1.8584 165.252
c0.532227 34.8203 5.87402 88.4551 -14.7715 118.772c-11.5684 16.9893 -58.1816 5.63867 -75.3623 5.55762c-75.7588 -0.351562 -151.383 -4.99023 -227.115 -5.96387c0.325195 -72.8174 1.88672 -145.618 2.6709 -218.436zM246.419 107.13
c-27.2236 -0.96582 -105.473 -9.11426 -113.67 29.1797c-17.1436 80.0635 2.80762 159.424 4.20605 239.847c0.0546875 3.16895 1.20117 5.60449 2.91406 7.39062c1.81348 2.27344 4.59277 3.84473 8.36523 3.88867c73.0078 0.849609 145.617 10.5312 218.309 -0.396484
c5.31543 -0.804688 7.67969 -6.30664 8.27539 -10.8828c4.80859 -36.8242 4.8457 -72.8447 4.28613 -109.885c-0.577148 -38.042 8.24902 -75.5957 6.13672 -113.431c-1.00977 -18.0732 -13.2998 -39.5303 -33.0254 -42.3184
c-34.1709 -4.81836 -71.1396 -2.15723 -105.797 -3.39258zM159.101 365.14c-3.46582 -71.582 -26.9531 -153.954 -4.60254 -222.83c4.05176 -12.4883 68.8213 -13.4355 77.4746 -13.1289c32.0049 1.13672 63.3975 2.65234 95.3838 2.1748
c56.3955 -0.839844 28.5225 91.3691 28.9736 120.939c0.423828 27.8984 2.20215 56.1055 0.108398 83.9785c-2.10352 27.8818 -8.0127 32.4209 -37.8896 33.3506c-20.9062 0.658203 -41.7598 0.694336 -62.666 -0.262695
c-32.2666 -1.46973 -64.4893 -3.50879 -96.7822 -4.22168zM362.404 63.8721c12.46 0 22.5566 -10.1064 22.5586 -22.5586c0 -12.4629 -10.0986 -22.5586 -22.5586 -22.5586h-68.6318c-6.60449 -12.9404 -19.3457 -22.5596 -38.3311 -22.5596
s-31.7256 9.61914 -38.3301 22.5596h-68.6318c-12.4619 0 -22.5586 10.0957 -22.5586 22.5586c0 12.4619 10.0986 22.5586 22.5586 22.5586h68.6318c6.60449 12.9395 19.3447 22.5586 38.3301 22.5586s31.7266 -9.61914 38.3311 -22.5586h68.6318z" />
    <glyph glyph-name="uniF153" unicode="&#xf153;" 
d="M30.8428 -59.7891c-13.2832 0.643555 -24.3076 10.5859 -24.3467 24.376c-0.322266 111.479 -6.17578 222.87 -6.49609 334.357c-0.0195312 8.15234 3.27344 14.1416 8.12207 18.0557c3.87402 3.76855 9.2207 6.27148 16.2236 6.29102
c24.6104 0.0507812 49.21 0.302734 73.8096 0.633789c8.92188 72.9814 50.915 117.856 132.301 120.72c36.501 1.27637 84.7939 4.41211 112.766 -24.5869c23.5381 -24.4053 32.791 -56.2109 41.8281 -87.9893c13.7793 0.526367 27.5215 0.662109 41.1846 -0.107422
c29.0605 -1.63672 69.3203 -6.23242 74.3262 -42.2666c5.54004 -39.8516 -2.96191 -78.9414 -0.0791016 -118.666c4.66406 -64.2861 42.9668 -211.437 -52.2578 -224.35c-62.6689 -8.5127 -131.142 -1.14062 -194.647 -3.82812
c-74.2373 -3.14648 -148.456 -6.27246 -222.733 -2.63965zM457.211 6.59961c3.54492 18.0752 3.70996 36.666 2.96094 55.0186c-1.29395 31.0479 -4.92773 61.8906 -7.21582 92.8398c-44.3701 -25.6025 -92.4688 -45.0205 -142.594 -53.4648
c5.51074 -14.3545 -1.68457 -34.123 -21.708 -34.123h-68.1699c-20.2275 0 -27.3467 20.1699 -21.5127 34.5527c-51.5186 8.43555 -99.6758 25.4375 -147.425 45.9961c1.4502 -53.0654 2.83398 -106.121 3.33008 -159.197c112.249 -2.97949 224.127 10.1484 336.296 7.17871
c17.0713 -0.448242 61.6943 -10.9082 66.0381 11.1992zM230.456 395.932c-53.125 -3.6123 -76.6826 -26.4395 -83.3818 -71.3066c44.2998 0.719727 88.6006 1.50098 132.912 1.75293c18.5908 0.107422 37.3174 1.34277 56.0557 2.6875
c-4.41211 17.1104 -9.69043 34.4062 -19.3213 47.5342c-18.5908 25.3223 -58.2471 21.2324 -86.2646 19.332zM347.915 279.798c-98.6533 -7.86914 -199.624 -5.51074 -298.9 -5.25879c0.235352 -24.54 0.575195 -49.083 1.15039 -73.623
c47.2227 -21.5527 96.791 -43.0459 148.484 -51.2744c2.55176 10.8682 12.3184 17.5303 23.6455 18.6494c21.4844 2.13281 42.9775 1.2959 64.5186 1.21777c12.8076 -0.0507812 20.2959 -8.2002 22.6631 -17.8027c51.1475 9.61133 98.8477 30.8604 144.59 60.5742
c2.38672 22.0879 4.92773 44.4668 -0.466797 64.46c-4.55957 16.877 -92.0811 4.13965 -105.685 3.05762z" />
    <glyph glyph-name="uniF154" unicode="&#xf154;" 
d="M96.1738 -53.7305c-7.55859 1.43945 -12.3096 9.32617 -12.5479 16.4824c-5.21484 156.174 -14.542 312.268 -10.0742 468.589c0.291992 10.3477 8.01465 15.7822 16.0371 16.4023c1.75977 0.265625 3.61133 0.374023 5.59863 0.0820312
c94.7324 -13.9033 227.622 21.875 305.303 -51.0469c44.0283 -41.3291 43.0527 -94.3125 34.4277 -150.431c-14.3779 -93.5732 -4.23926 -189.474 -14.7881 -283.594c-1.08496 -9.69043 -6.97559 -16.5205 -17.0957 -17.0947
c-102.471 -5.87207 -205.036 -18.7461 -306.86 0.610352zM323.229 398.327c-4.95215 -34.875 -11.7344 -69.4395 -16.9141 -104.267c31.0635 -4.33984 61.4727 -0.683594 92.1709 7.63086c2.67188 0.71875 5.15137 0.837891 7.39355 0.482422
c-0.373047 31.2178 -9.06348 59.9854 -40.1357 78.1016c-13.5928 7.93262 -27.8535 13.6748 -42.5146 18.0518zM107.396 412.506c-3.14453 -145.207 4.83301 -290.232 9.89355 -435.32c89.3896 -14.6348 180.174 -4.1123 270.072 1.68652
c6.8584 78.5117 0.712891 157.688 9.10938 235.936c1.76855 16.4854 5.04199 34.6562 7.24805 52.9736c-40.1807 -10.3936 -80.2627 -13.1377 -121.118 -4.0752c-6.66504 1.47656 -13.4941 9.3457 -12.5557 16.4844c5.57031 42.0508 14.5146 83.5527 20.1035 125.595
c-59.2822 9.42773 -123.452 1.75195 -182.753 6.7207zM154.389 194.276c-13.248 -6.13672 -24.8359 13.5029 -11.4961 19.6768c24.3252 11.2676 54.0576 27.7529 81.9854 21.3984c16.9668 -3.86719 28.5928 -11.1699 43.4902 -19.8867
c27.9355 -16.3369 48.6143 -6.44531 76.3135 2.67188c14.0039 4.61328 19.959 -17.4053 6.06348 -21.9727c-28.2461 -9.30078 -50.3564 -19.2119 -79.3418 -8.44336c-20.0586 7.43945 -35.293 27.707 -58.8535 25.8936
c-21.0156 -1.62207 -39.2881 -10.6025 -58.1611 -19.3379zM154.389 108.178c-13.248 -6.13574 -24.8359 13.5127 -11.4961 19.6768c24.3252 11.2676 54.0576 27.7529 81.9854 21.3975c16.9668 -3.86719 28.5928 -11.1689 43.4902 -19.8857
c27.9355 -16.3369 48.6143 -6.44531 76.3135 2.67188c14.0039 4.61328 19.959 -17.4053 6.06348 -21.9727c-28.2461 -9.30078 -50.3564 -19.2129 -79.3418 -8.44434c-20.0586 7.4502 -35.293 27.708 -58.8535 25.8945
c-21.0156 -1.62305 -39.2881 -10.6025 -58.1611 -19.3379zM154.389 22.0908c-13.248 -6.1377 -24.8359 13.502 -11.4961 19.6768c24.3252 11.2676 54.0576 27.7529 81.9854 21.3975c16.9668 -3.86719 28.5928 -11.1689 43.4902 -19.8857
c27.9355 -16.3379 48.6143 -6.44531 76.3135 2.67188c14.0039 4.61328 19.959 -17.4053 6.06348 -21.9736c-28.2461 -9.2998 -50.3564 -19.2119 -79.3418 -8.44336c-20.0586 7.4502 -35.293 27.708 -58.8535 25.8945c-21.0156 -1.62305 -39.2881 -10.6025 -58.1611 -19.3379
z" />
    <glyph glyph-name="uniF128" unicode="&#xf128;" 
d="M250.678 -63.7793c-62.4453 3.63672 -113.638 35.998 -118.883 102.932c-2.8457 36.4336 6.30176 79.4287 37.208 102.136c-0.405273 66.001 -3.7793 133.093 0.479492 198.803c4.20801 64.8877 33.5244 114.379 103.895 107.221
c2.79785 0.327148 5.84961 0.0341797 9.15918 -1.03906c56.6924 -18.4717 59.415 -101.178 61.5098 -150.436c2.19629 -51.7891 0.981445 -103.811 -2.99219 -155.515c85.833 -71.3174 21.5645 -210.623 -90.376 -204.102zM201.365 110.912
c-16.8574 -8.49121 -27.2168 -29.8545 -27.4658 -48.1094c-0.679688 -49.9434 24.2178 -83.9053 76.7773 -83.6787c36.3242 0.151367 73.5801 11.3906 83.8457 51.0176c8.06348 31.1357 1.57617 63.0176 -26.4512 81.6328c-5.9834 3.97363 -11.2715 10.8633 -10.627 18.5234
c2.81543 33.4492 4.42578 67.1084 4.69434 100.668c0.259766 29.9961 0.368164 60.2773 -2.77539 90.1396c-2.00293 18.8828 -4.08887 74.7275 -27.583 83.4609c-76.0127 5.67383 -59.792 -88.8496 -59.792 -142.6v-132.525c0 -7.19043 -3.99707 -15.1943 -10.623 -18.5293z
M278.504 58.5869c0 -27.6836 -42.9131 -27.6836 -42.9131 0v250.323c0 27.667 42.9131 27.667 42.9131 0v-250.323z" />
    <glyph glyph-name="uniF147" unicode="&#xf147;" 
d="M3.66504 273.911c0.30957 13.9961 11.4395 25.6738 25.6729 25.6719h119.081v122.737c0 13.7627 11.6768 25.9814 25.6748 25.6738c54.6025 -1.22363 109.212 -2.44434 163.814 -3.66602c13.9863 -0.30957 25.6729 -11.4395 25.6729 -25.6738v-119.071h122.738
c6.79688 0 12.1055 -2.2373 16.1211 -5.66797c5.77051 -4.06641 9.76562 -10.6689 9.5498 -20.0029c-1.2207 -54.6025 -2.43359 -109.212 -3.65527 -163.814c-0.307617 -13.9863 -11.4395 -25.6738 -25.6729 -25.6738h-119.081v-122.746
c0 -13.7627 -11.6768 -25.9814 -25.6729 -25.6738c-54.6025 1.22363 -109.214 2.44531 -163.814 3.66602c-13.9863 0.308594 -25.6729 11.4404 -25.6729 25.6738v119.08h-122.738c-13.7617 0 -25.9805 11.6777 -25.6729 25.6738
c1.22168 54.6025 2.43359 109.212 3.65527 163.813zM54.4355 248.238c-0.841797 -37.4814 -1.67285 -74.9746 -2.5166 -112.471h122.162c13.998 0 25.6738 -11.6777 25.6738 -25.6738v-119.656c37.4824 -0.841797 74.9854 -1.6748 112.468 -2.5166v122.173
c0 13.998 11.6875 25.6738 25.6738 25.6738h119.646c0.842773 37.4922 1.6748 74.9756 2.51758 112.469h-122.162c-13.9863 0 -25.6738 11.6777 -25.6738 25.6738v119.646c-37.4834 0.841797 -74.9854 1.6748 -112.469 2.5166v-122.162
c0 -13.9971 -11.6768 -25.6729 -25.6729 -25.6729h-119.647z" />
    <glyph glyph-name="uniF109" unicode="&#xf109;" 
d="M511.603 221.783c5.95508 -113.806 -55.0771 -240.699 -173.457 -269.97c-167.612 -41.4521 -340.438 60.168 -338.123 242.76c1.91016 151.458 132.595 250.238 278.277 246.729c129.452 2.16406 226.518 -90.0498 233.303 -219.519zM431.094 320.6
c-14.5654 21.0566 -33.2969 38.208 -55.5479 50.6006c-16.5869 -33.5596 -32.0742 -67.582 -46.2051 -102.187c34.3975 16.1631 67.7793 34.3867 101.753 51.5859zM58.2891 125.109c46.6777 8.70215 89.5039 28.3203 132.879 47.4932
c0.592773 0.837891 1.26953 1.52441 1.92871 2.22168c-1.5625 6.03809 -2.2959 12.5791 -1.77832 19.7002c2.65137 36.9004 31.998 61.8408 68.7285 61.5312c4.62012 0 9.07129 -0.508789 13.3418 -1.39258c17.3223 45.5098 36.9951 90.04 58.4092 133.771
c-16.7012 4.12207 -34.5879 6.14355 -53.498 5.82422c-121.361 2.92676 -241.678 -80.1973 -230.792 -212.199c1.61719 -19.6172 5.17383 -38.793 10.7812 -56.9502zM124.131 28.9736c11.5342 26.5312 23.5879 52.8008 35.9209 78.9463
c-26.7959 -11.1865 -54.0703 -21 -82.541 -26.9551c11.8369 -20.2939 27.2666 -38.0283 46.6201 -51.9912zM351.121 6.06445c82.5791 40.2402 122.752 134.315 112.808 223.555c-1.95801 17.5557 -5.88965 33.9561 -11.3945 49.1973
c-44.5869 -22.5996 -88.2803 -46.3936 -134.23 -65.8691c1.32617 -4.66699 2.2207 -9.56738 2.46484 -14.7246c1.40234 -28.5742 -16.2588 -62.1426 -46.7607 -67.4688c-16.5674 -2.8877 -33.833 -0.544922 -48.3223 6.31348
c-20.415 -43.0234 -41.2451 -85.8799 -60.0723 -129.63c2.7002 -0.959961 5.31543 -1.99414 8.12012 -2.83203c54.2969 -16.3047 124.306 -24.4053 177.388 1.45898z" />
    <glyph glyph-name="uniF113" unicode="&#xf113;" 
d="M93.0439 196.642c-24.9463 23.4004 -48.583 47.8359 -70.2998 74.4951c-6.55762 8.04688 -10.6953 20.3076 -3.86035 29.832c32.2842 44.8896 64.5674 89.7812 96.8506 134.681c8.39062 11.6699 27.793 18.3076 38.666 4.98242
c30.6602 -37.5615 65.2373 -70.6924 101.599 -102.396c36.3613 31.7021 70.9385 64.833 101.599 102.396c10.873 13.3164 30.2754 6.6875 38.666 -4.98242c32.2852 -44.8906 64.5684 -89.7803 96.8525 -134.681c6.83496 -9.52441 2.69727 -21.7852 -3.86035 -29.832
c-21.7275 -26.6699 -45.374 -51.0947 -70.3203 -74.4951c27.2314 -27.6748 52.1777 -56.9053 74.1514 -89.2783c4.52148 -6.6377 4.75684 -18.2295 0 -24.8486c-32.2744 -44.8896 -64.5576 -89.7793 -96.832 -134.68c-11.0801 -15.4043 -31.585 -16.1514 -42.5273 0
c-27.8213 41.0801 -61.4053 76.2295 -97.7373 109.39c-36.3418 -33.1621 -69.916 -68.3008 -97.7383 -109.39c-10.9414 -16.1514 -31.4463 -15.4043 -42.5264 0c-32.2744 44.8896 -64.5576 89.7793 -96.832 134.681c-4.75684 6.6084 -4.52148 18.2012 0 24.8486
c21.9727 32.3721 46.9082 61.6025 74.1504 89.2773zM138.791 383.757c-22.4951 -31.2803 -44.999 -62.5781 -67.4717 -93.877c23.2422 -26.6992 48.249 -51.4297 74.7012 -75.165c9.8291 -8.81445 9.31641 -25.9229 0 -34.8154
c-27.7529 -26.5127 -53.1318 -54.1768 -75.5977 -85.0625c22.248 -30.9453 44.4971 -61.8887 66.7539 -92.834c30.0186 38.6553 64.3301 73.0371 101.421 105.627c10.5771 9.2959 24.2373 9.2959 34.8154 0c37.0889 -32.5781 71.4023 -66.9717 101.421 -105.627
c22.2568 30.9453 44.4961 61.8887 66.7539 92.834c-22.4639 30.8857 -47.8535 58.5596 -75.5977 85.0625c-4.59082 4.38281 -6.78711 9.26758 -7.32812 14.1133c-1.49609 6.88477 0.277344 14.3877 7.32812 20.7109c26.4619 23.7354 51.459 48.4756 74.7012 75.165
c-22.5039 31.29 -44.998 62.5791 -67.4932 93.8682c-30.748 -34.3906 -64.4395 -65.543 -99.7959 -95.4922c-10.8916 -9.23828 -23.9131 -9.23828 -34.8154 0c-35.3564 29.959 -69.0479 61.1016 -99.7959 95.4922z" />
    <glyph glyph-name="uniF106" unicode="&#xf106;" 
d="M98.1514 -53.8262c-9.87793 1.87402 -16.0703 12.1709 -16.3643 21.5215c-5.11328 152.835 -14.2402 305.591 -9.86914 458.57c0.383789 13.4551 10.4043 20.54 20.8525 21.3867c2.32812 0.365234 4.75586 0.5 7.37891 0.116211
c94.3486 -13.8467 223.833 21.2725 301.236 -51.3926c44.6406 -41.9014 43.873 -95.7764 35.1299 -152.64c-13.998 -91.0557 -4.00684 -184.44 -14.2754 -276.049c-1.41895 -12.6436 -9.11133 -21.5498 -22.3076 -22.3076
c-100.843 -5.78223 -201.59 -18.2549 -301.781 0.793945zM326.329 386.782c-4.50586 -30.0596 -10.1279 -59.9414 -14.7412 -89.9766c27.7305 -3.01465 54.9463 0.508789 82.4092 7.95996c1.11621 0.292969 2.16895 0.391602 3.23047 0.53418
c-1.3916 26.5986 -10.1631 50.7354 -36.6084 66.1621c-11.0098 6.42383 -22.4941 11.3672 -34.29 15.3203zM116.076 401.952c-2.71289 -138.569 4.71973 -276.968 9.61816 -415.412c83.9629 -13.0088 169.325 -3.46387 253.778 2.17676
c5.99609 75.1025 0.419922 150.802 8.4502 225.636c1.48145 13.7764 4.20312 29.0068 6.37988 44.5498c-37.6982 -8.79785 -75.3779 -10.5811 -113.72 -2.07812c-8.69043 1.9375 -17.6055 12.1885 -16.373 21.5127c5.24609 39.6543 13.5088 78.8232 18.9961 118.431
c-54.3203 7.78906 -112.782 1.60645 -167.13 5.18457z" />
    <glyph glyph-name="uniF116" unicode="&#xf116;" 
d="M506.781 113.985c1.07129 -3.88086 1.20117 -7.88184 0.149414 -11.665c0.605469 -28.1494 10.9131 -79.9502 -3.05762 -103.789c-9.69141 -16.541 -33.71 -19.7686 -49.8145 -25.9648c-138.909 -53.3662 -283.724 -48.1543 -418.541 14.5771
c-6.11621 2.84961 -9.70117 7.03027 -11.4678 11.6865c-1.9668 3.36523 -3.24609 7.38672 -3.30664 12.2227c-1.26172 106.301 -20.9297 211.339 -19.8574 317.73c0.0576172 6.0752 1.90527 10.9805 4.84473 14.7539c3.66406 30.2432 32.1797 56.0889 57.916 69.1465
c115.674 58.6904 268.898 26.8574 393.489 25.3877c6.82227 1.33008 14.2188 -0.476562 20.5137 -7.33691c16.6123 -18.1201 24.1279 -35.9941 24.9824 -52.8926c1.36914 -3.01953 2.15332 -6.52441 2.15332 -10.5352c0.0791016 -84.4463 1.33984 -168.884 1.99609 -253.321
zM61.2734 348.63c-19.75 -24.5732 54.9658 -28.0693 70.3369 -29.9072c69.6523 -8.37891 142.452 -14.1182 212.373 -5.27246c32.6768 4.12012 133.366 29.9463 104.027 75.1035c-91.0498 1.69824 -183.64 13.6934 -274.262 2.34375
c-37.6006 -4.71484 -86.6299 -10.1074 -112.476 -42.2676zM51.2637 284.082c0.615234 -16.3037 1.59961 -32.5781 2.79199 -48.8398c130.756 -45.585 280.001 -69.0781 401.801 9.64062c-0.15918 18.4971 -0.279297 36.9951 -0.398438 55.4932
c-15.6992 -10.9307 -33.9082 -19.6699 -52.4561 -25.4678c-93.8496 -29.3408 -208.908 -16.9189 -304.157 -1.26074c-14.3086 2.35254 -31.6836 5.06152 -47.5811 10.4346zM58.5518 181.395c1.63867 -17.8027 3.30762 -35.6045 4.90625 -53.3965
c120.629 -60.002 271.283 -55.8018 393.539 -1.93652c-0.138672 15.6973 -0.248047 31.3955 -0.426758 47.0928c-0.0517578 4.78516 -0.0898438 9.56055 -0.150391 14.3467c-122.227 -65.8008 -268.195 -48.5244 -397.868 -6.10645zM440.861 20.4336
c7.12891 4.19141 14.7354 6.50391 22.7861 6.93359c-2.01562 1.0625 -4.03027 2.11328 -6.0459 3.16699c-0.0380859 14.1182 -0.107422 28.248 -0.188477 42.3662c-123.677 -48.0176 -266.625 -52.1094 -389.617 -1.19141
c0.993164 -15.2324 1.69922 -30.4824 2.11621 -45.7637c120.507 -53.1006 248.018 -52.2578 370.949 -5.51172z" />
    <glyph glyph-name="uniF133" unicode="&#xf133;" 
d="M224.458 -59.0664c-48.4053 1.66797 -96.8184 -4.14453 -144.985 1.38184c-9.19336 1.05859 -19.6729 5.92578 -21.4541 16.3271c-6.26465 36.6611 -7.00293 73.5664 -4.375 110.565c-0.0996094 2.15527 0.0439453 4.30078 0.46875 6.42188
c9.39746 115.311 50.6543 231.592 60.9609 344.965c0.15332 1.66016 0.474609 3.18066 0.891602 4.64941c0.712891 10.4697 7.76758 20.2295 21.3545 19.8213c63.7891 -1.92871 127.52 4.24902 191.292 2.67578c35.209 -0.868164 68.8369 -9.91406 79.3096 -47.9238
c33.0703 -120.132 53.8301 -249.104 51.7188 -373.588c-0.626953 -36.4873 -2.39941 -70.5869 -42.6572 -84.0723c-19.1074 -6.39453 -37.3994 -6.56836 -57.1328 -5.89062c-45.1348 1.54785 -90.2676 3.10254 -135.392 4.66699zM124.594 208.519
c-7.66016 -37.0684 -16.4316 -74.6777 -22.1162 -112.506c39.5898 4.40527 86.4521 9.82715 107.268 -26.9551c3.75488 -6.63965 1.47754 -26.5381 12.3477 -28.0332c13.668 -1.87695 27.9932 -1.25 41.6973 -0.224609c12.8672 0.955078 25.6934 2.32715 38.5029 3.72656
c0.078125 14.1484 0.0605469 28.2246 1.85742 42.3975c1.53125 12.0332 8.95898 22.2441 22.2461 22.2441h86.7471c-2.08594 24.7559 -4.92773 49.5576 -6.90039 73.4971c-4.40527 53.207 -18.4404 108.653 -30.1699 160.834
c-5.13574 22.8887 -6.2041 58.7422 -36.7324 59.498c-21.418 0.522461 -42.9424 0.131836 -64.3623 -0.3125c-39.2031 -0.816406 -78.3281 -2.6416 -117.513 -2.3291c-7.10352 -64.6055 -19.7041 -128.178 -32.8721 -191.837zM98.7988 -14.6631
c34.8359 -1.66797 69.2549 2.0332 104.285 0.819336c37.5654 -1.29492 75.126 -2.58887 112.691 -3.88379c20.583 -0.705078 41.1973 -1.7832 61.791 -2.12988c39.4072 -0.668945 37.0166 27.5205 38.1123 59.6543c0.279297 8.19434 0.208008 16.5264 0.00878906 24.8779
h-68.5693c-0.399414 -13.3037 -0.147461 -26.6084 -0.695312 -40.042c-0.529297 -13.0771 -9.79395 -20.959 -22.2441 -22.2461c-42.7275 -4.3877 -90.8926 -15.416 -131.799 2.09375c-15.7666 6.76172 -19.7627 46.8369 -30.0039 48.3408
c-21.416 3.14453 -43.2266 0.173828 -64.8594 -2.00879c-1.42969 -21.8105 -1.31543 -43.6562 1.28223 -65.4756zM157.153 132.52c-21.5244 -0.0947266 -21.5156 33.2725 0 33.3691c70.8711 0.305664 141.713 3.77246 212.445 -2.22461
c21.2812 -1.7998 21.4541 -35.1846 0 -33.3682c-70.7324 5.99512 -141.574 2.5293 -212.445 2.22363zM181.07 214.828c-21.5146 0 -21.5146 33.3672 0.000976562 33.3682h164.614c21.5146 0 21.5146 -33.3682 0 -33.3682h-164.615zM193.857 294.909
c-21.5156 0 -21.5156 33.3682 0 33.3682h139.037c21.5156 0 21.5156 -33.3682 0 -33.3682h-139.037z" />
    <glyph glyph-name="uniF126" unicode="&#xf126;" 
d="M320.834 116.373c29.4834 3.04297 29.1963 -42.9502 -0.00878906 -45.9824c-25.335 -2.60449 -50.7061 -6.30371 -76.1504 -3.26855c-11.9004 1.41797 -23.6924 9.38086 -22.9844 22.9834c1.95898 37.3926 2.13184 74.958 0.754883 112.398
c-3.65332 0.157227 -7.32129 0.193359 -11.0332 0.138672c-29.6592 -0.445312 -29.6143 45.5361 0 45.9668c13.2012 0.201172 26.4307 -0.762695 39.3271 -3.74414c10.29 -2.37988 16.3438 -12.2061 16.8652 -22.1621c1.93945 -36.832 2.19043 -73.793 0.915039 -110.666
c17.4609 0.287109 34.8975 2.54883 52.3145 4.33594zM433.705 264.364c13.6621 -93.6484 4.61426 -229.493 -76.2334 -293.909c-41.1904 -32.8242 -92.3467 -42.4834 -143.22 -27.7422c-72.8691 21.1338 -117.363 72.0469 -131.145 147.103
c-13.8789 75.6309 -14.9209 167.774 6.71191 242.471c25.2725 87.2842 105.485 116.313 189.788 115.062c0.125 0 0.233398 -0.0351562 0.367188 -0.0439453c99.2422 10.5654 141.815 -101.281 153.73 -182.939zM344.931 23.3809
c48.7139 62.502 55.7529 160.084 43.4521 235.588c-8 49.0371 -32.75 153.63 -102.169 143.297c-2.02832 -0.542969 -4.19238 -0.912109 -6.61523 -0.871094c-36.1133 0.529297 -77.418 -1.98047 -107.718 -24.2988c-32.9033 -24.2441 -39.9473 -60.7217 -44.6367 -98.9043
c-7.82129 -63.7402 -13.751 -134.177 5.04883 -196.571c17.3467 -57.5859 60.3623 -97.1494 122.41 -99.5479c36.458 -1.4082 67.6211 12.291 90.2275 41.3086zM233.77 273.391c-20.6396 0 -31.4209 16.1924 -31.4209 32.1768c0 8.21875 2.75488 15.9629 7.77441 21.7988
c5.75488 6.70117 14.1572 10.3779 23.6465 10.3779c20.627 0 31.4229 -16.1885 31.4229 -32.1768c0 -8.22754 -2.76074 -15.959 -7.77832 -21.7988c-5.75684 -6.69727 -14.1592 -10.3779 -23.6445 -10.3779z" />
    <glyph glyph-name="uniF136" unicode="&#xf136;" 
d="M495.134 274.883c9.69531 -1.58887 15.8594 -12.1855 16.1338 -21.1895c1.14258 -38.2578 1.08301 -76.1504 -1.16699 -114.37c-0.754883 -12.8711 -9.48926 -20.7549 -21.9814 -21.9814c-7.71973 -0.756836 -15.5674 -0.868164 -23.4336 -0.790039
c0.429688 -0.472656 0.805664 -1.01367 1.24512 -1.47656c13.4717 -13.9883 3.69238 -37.0176 -15.542 -37.5244c-76.249 -2.01758 -152.661 0.103516 -228.949 -0.651367c-58.4355 -0.592773 -119.784 -6.89551 -177.954 -2.12109
c-35.2061 2.89258 -43.999 27.0996 -43.4639 58.2441c0.859375 50.8926 3.68359 101.729 0.47168 152.623c-0.694336 11.0508 5.59375 17.7021 13.5938 20.1104c2.46484 1.05664 5.22461 1.76855 8.38965 1.87109c138.92 4.58203 278.702 3.89453 417.66 1.46875
c17.8867 -0.317383 24.8398 -17.0137 19.2695 -30.9414c11.9424 -0.446289 23.8516 -1.32715 35.7275 -3.27148zM103.072 120.047c102.155 0.15625 204.684 -1.01367 306.865 0.763672c-20.6084 43.7568 -22.5049 99.8545 -5.70117 144.806
c-119.501 1.81152 -239.466 2.03906 -358.905 -1.4082c1.30859 -37.3955 0.261719 -74.8896 -0.897461 -112.263c-0.463867 -14.8291 -6.95508 -33.9932 8.8916 -34.0107c16.625 -0.0166016 33.1406 2.08691 49.7471 2.1123zM467.082 160.508
c0.961914 24.5586 1.09082 49.0547 0.634766 73.6221c-5.9248 0.369141 -11.8916 0.501953 -17.8604 0.518555c-3.26172 -24.1895 -4.12012 -49.9785 0.979492 -73.8594c5.42676 -0.161133 10.8447 -0.263672 16.2461 -0.28125zM219.214 249.182
c6.23535 -0.150391 10.665 -4.89746 10.9834 -10.9912c1.64355 -30.5635 3.2793 -61.1191 4.92383 -91.6787c0.317383 -5.94336 -5.24219 -11.043 -10.9912 -10.9922c-49.8711 0.481445 -99.7725 0.764648 -149.653 0c-5.9707 -0.0849609 -11.0244 5.07422 -10.9902 10.9922
c0.158203 30.0273 1.27539 60.0498 1.45117 90.0771c0.0263672 4.58105 2.34863 7.65039 5.46094 9.27832c1.51172 0.966797 3.33105 1.61816 5.53027 1.71289c47.708 2.05176 95.5342 2.77441 143.285 1.60156zM85.6455 157.57c42.3027 0.53418 84.6035 0.387695 126.906 0
c-1.25 23.2705 -2.49805 46.5225 -3.74805 69.7803c-40.6836 0.763672 -81.4092 0.201172 -122.059 -1.36621c-0.272461 -22.7979 -0.825195 -45.5996 -1.09961 -68.4141z" />
    <glyph glyph-name="uniF14D" unicode="&#xf14d;" 
d="M233.917 107.533c2.35938 1.30762 5.20508 2.11914 8.6416 2.03613c28.4834 -0.765625 53.6494 -18.166 54.6914 -48.5469c0.80957 -23.5459 -13.1836 -50.9502 -37.6318 -57.0117c-28.7598 -7.13867 -58.8086 11.2656 -63.5068 40.9287
c-4.38477 27.6992 11.459 53.9531 37.8057 62.5938zM262.696 61.0225c-0.848633 9.30469 -8.72461 13.0811 -17.7969 13.8271c-25.4814 -8.75195 -11.8477 -48.4268 7.36816 -36.7646c7.55371 4.57812 11.2207 14.167 10.4287 22.9375zM393.587 107.533
c2.3584 1.30762 5.20605 2.11914 8.64062 2.03613c28.4834 -0.765625 53.6494 -18.166 54.6914 -48.5469c0.80957 -23.5459 -13.1836 -50.9502 -37.6309 -57.0117c-28.7607 -7.13867 -58.8096 11.2656 -63.5068 40.9287c-4.38574 27.6992 11.459 53.9531 37.8057 62.5938z
M422.365 61.0225c-0.84668 9.30469 -8.72461 13.0811 -17.7969 13.8271c-25.4814 -8.75195 -11.8477 -48.4268 7.36914 -36.7646c7.55371 4.57812 11.2197 14.167 10.4277 22.9375zM489.77 168.562c29.708 1.39062 29.5693 -44.6787 0.0117188 -46.0713
c-82.7334 -3.87793 -204.026 -40.082 -276.349 16.959c-35.8721 28.2803 -45.2676 63.7285 -49.0537 107.854c-3.34277 38.874 -3.94238 85.7363 -55.7227 88.1123c-28.833 1.32812 -57.5469 -1.24316 -86.3799 -1.76855c-29.7266 -0.542969 -29.6709 45.5156 0 46.0596
c54.7373 0.996094 107.53 9.9502 152.936 -23.5264c2.56055 1.02246 5.4248 1.66797 8.71387 1.67676c89.7246 0.258789 179.18 3.28906 268.278 -9.55273c10.4277 -1.51074 16.2871 -12.916 16.9043 -22.2109c3.53613 -53.2715 -3.2627 -106.286 -8.00586 -159.291
c9.55176 0.682617 19.1045 1.30762 28.667 1.75977zM414.784 162.98c0.0185547 0.332031 -0.0371094 0.616211 -0.00976562 0.975586c4.1543 47.2207 10.124 94.46 9.13867 141.863c-73.0137 8.81738 -146.837 6.7168 -220.302 6.11719
c7.4248 -30.8965 4.00684 -68.2881 10.8428 -94.4492c13.0625 -49.8916 61.2402 -62.4844 107.189 -61.0479c31.1172 0.976562 62.125 3.77637 93.1406 6.54102zM232.618 290.813c0.240234 14.8311 23.2695 14.8584 23.0303 0
c-0.443359 -27.4688 -5.60059 -54.6357 -4.60645 -82.1416c0.543945 -14.8584 -22.4971 -14.8047 -23.0303 0c-0.994141 27.5059 4.16406 54.6729 4.60645 82.1416zM381.271 287.286c0.240234 14.8398 23.2686 14.8584 23.0303 0
c-0.444336 -27.4697 -5.60156 -54.6357 -4.60742 -82.1426c0.543945 -14.8584 -22.4961 -14.8037 -23.0303 0c-0.994141 27.5068 4.16504 54.6729 4.60742 82.1426zM278.891 290.813c0.182617 14.8398 23.2129 14.8584 23.0303 0
c-0.443359 -37.1709 -5.59277 -74.1006 -4.60645 -111.298c0.396484 -14.8584 -22.6348 -14.8213 -23.0303 0c-0.984375 37.1973 4.16406 74.1279 4.60645 111.298zM329.557 290.813c0.182617 14.8398 23.2129 14.8584 23.0303 0
c-0.444336 -37.1709 -5.59277 -74.1006 -4.60742 -111.298c0.396484 -14.8584 -22.6338 -14.8213 -23.0303 0c-0.985352 37.1973 4.16504 74.1279 4.60742 111.298z" />
    <glyph glyph-name="uniF10B" unicode="&#xf10b;" 
d="M0.147461 199.04c4.83398 149.485 134.092 245.573 278.138 242.307c127.381 1.97461 223.835 -86.8555 232.976 -214.357c8.18848 -114.369 -51.8301 -243.606 -170.586 -274.464c-169.196 -43.958 -346.521 61.1699 -340.527 246.515zM278.285 391.71
c-117.903 2.68066 -237.354 -76.9014 -228.243 -205.889c5.77734 -81.7852 44.5947 -156.126 128.007 -179.817c54.3906 -15.4434 123.601 -22.8379 175.986 4.31738c79.8281 41.3887 121.297 138.626 106.518 226.515c-16.1875 96.2959 -83.3926 156.412 -182.268 154.874z
M311.861 19.0254c-120.96 -25.7959 -248.359 47.5918 -239.317 182.477c7.08594 105.646 96.9688 171.241 199.418 169.604c93.0088 0.705078 164.104 -65.0596 167.628 -159.231c3.06738 -81.5654 -41.1299 -174.387 -127.729 -192.849zM271.973 333.876
c-82.5586 1.31934 -168.998 -53.4668 -162.13 -145.168c4.14844 -55.502 28.6533 -109.485 85.9326 -126.914c38.2119 -11.6221 85.04 -17.6074 123.113 -1.5791c131.113 55.2246 103.055 274.802 -46.916 273.661zM288.141 84.3428
c-73.5566 -12.8516 -151.847 29.7666 -145.863 113.05c4.74414 66.1016 59.2354 106.469 123.62 105.952c56.7139 0.00878906 101.069 -38.8867 103.918 -96.8408c2.52246 -51.6406 -25.6074 -112.374 -81.6748 -122.161zM265.897 278.521
c-51.3535 0.417969 -105.009 -33.8535 -98.5674 -91.4922c4.34668 -39.0254 25.21 -70.7373 65.9834 -77.7646c22.8984 -3.95117 49.9844 -5.61719 70.5391 7.52344c68.2461 43.6426 49.6162 161.754 -37.9551 161.733z" />
    <glyph glyph-name="uniF13A" unicode="&#xf13a;" 
d="M428.628 352.58c32.5186 -64.1621 21.9961 -119.265 -19.1221 -175.776c-30.0654 -41.3506 -43.0791 -97.5273 -79.3936 -133.158c0.0195312 -0.494141 0.135742 -0.929688 0.124023 -1.44141c-0.297852 -16.7129 -2.32617 -33.2041 -7.47656 -49.1455
c-3.32422 -10.2998 -11.873 -17.4287 -22.7314 -18.0557c-0.396484 -2.61133 -0.926758 -5.18945 -1.79785 -7.67285c-6.14551 -17.6514 -18.9941 -29.1758 -37.9238 -31.127c-26.6689 -2.74512 -45.3047 23.0312 -47.1699 47.5215
c-0.144531 0.115234 -0.313477 0.202148 -0.472656 0.318359c-18.0859 13.9219 -21.9482 30.5674 -26.7705 50.7295c-0.216797 0.280273 -0.375977 0.588867 -0.569336 0.879883c-15.2988 14.084 -24.5146 32.8555 -32.2344 52.5928
c-5.25098 13.4492 -10.1484 27.0234 -14.1143 40.8945c-0.52832 0.570312 -1.09277 1.16016 -1.75391 1.93262c-42.0156 48.1914 -78.1631 109.05 -72.4043 175.194c9.69531 111.28 140.37 158.918 236.594 136.205c50.9912 -12.042 102.697 -41.4756 127.217 -89.8916z
M373.144 210.617c31.5039 46.0625 37.6299 100.181 -5.98926 142.72c-26.7705 26.1084 -62.8545 42.5996 -100.504 44.5459c-82.6572 4.28516 -182.266 -48.001 -146.308 -146.09c14.3271 -39.0938 42.127 -63.4688 62.1396 -97.6299
c14.4336 -24.6543 11.3574 -65.877 37.2881 -83.4512c27.5781 -12.3467 61.3916 -11.9609 81.8145 13.4082c17.6016 21.8555 21.999 48.7607 35.3877 72.624c10.665 19.042 23.9014 35.9199 36.1709 53.873zM193.058 356.789
c12.5928 4.85449 27.1182 -5.25586 30.4326 -17.2744c3.84473 -13.9785 -4.70898 -25.5713 -17.2734 -30.4229c-5.19336 -1.99414 -10.7725 -6.75195 -13.3662 -10.877c-5.08691 -8.14453 -6.69629 -13.1289 -8.93262 -22.9639
c-2.99902 -13.1494 -17.8779 -20.7236 -30.4316 -17.2744c-13.415 3.69043 -20.2578 17.2842 -17.2734 30.4219c7.2832 31.9736 25.9883 56.4785 56.8447 68.3906z" />
    <glyph glyph-name="uniF123" unicode="&#xf123;" horiz-adv-x="511" 
d="M338.145 -48.1865c-167.603 -41.4453 -340.437 60.1807 -338.121 242.76c1.91992 151.449 132.6 250.236 278.278 246.727c129.459 2.16504 226.519 -90.0459 233.301 -219.526c5.95508 -113.793 -55.082 -240.686 -173.458 -269.96zM278.302 394.259
c-121.358 2.91602 -241.679 -80.1973 -230.788 -212.194c6.60742 -80.0732 45.0586 -153.071 126.225 -177.456c54.2949 -16.3096 124.299 -24.4131 177.386 1.4502c82.582 40.2539 122.761 134.327 112.802 223.552c-11.2734 100.953 -83.8955 166.353 -185.624 164.648z
M198.336 152.045c-17.9268 54.3438 -42.3896 106.438 -53.4346 162.835c-3.48242 6.79395 2.19141 16.2295 10.2725 16.9248c3.24805 0.5 6.5332 -0.244141 8.87598 -2.50098c43.418 -21.8848 101.407 -49.0664 133.749 -88.9844
c2.38965 -0.1875 4.83203 -1.14844 7.0293 -3.23926c42.457 -40.1094 64.0127 -103.106 75.4043 -158.987c1.74609 -8.52637 -5.36621 -17.0811 -14.4609 -14.4717c-55.9277 16.0703 -108.739 38.001 -154.954 73.3945c-4.3916 0.356445 -8.42969 3.10449 -10.1113 8.08496
c-1.90039 2.18652 -2.57715 4.60254 -2.37012 6.94434zM312.832 190.746c0.734375 -27.9775 -16.1182 -57.5068 -48.835 -59.3906c-1.00684 -0.0371094 -1.96777 0.0380859 -2.96387 0.0292969c28.8916 -16.6865 59.9385 -29.21 92.0137 -39.3438
c-8.25879 34.0771 -20.6816 69.3682 -40.2148 98.7051zM264.815 241.238c-25.6123 23.6533 -61.1104 42.1211 -92.1543 57.5713c8.01562 -31.0371 19.3818 -61.0039 30.6504 -91.0244c10.0557 24.0254 37.417 34.3672 58.21 33.498
c1.13086 0.0419922 2.2002 -0.0273438 3.29395 -0.0449219z" />
    <glyph glyph-name="uniF12B" unicode="&#xf12b;" 
d="M38.2402 212.452c-16.4531 6.52344 -25.5352 32.5947 -5.50879 42.1025c31.5898 14.9697 66.0645 23.333 96.6025 40.6377c54.2666 30.7305 87.0264 76.9189 106.999 135.603c2.43457 7.14746 7.16113 11.6553 12.6768 13.9766
c8.8916 5.03809 20.2451 4.7373 27.1904 -4.90234c2.90527 -2.79883 4.93066 -6.40039 5.58691 -10.6562c16.1221 -34.1328 30.4795 -74.3066 56.5693 -101.521c35.6523 -37.209 87.3379 -49.4883 135.899 -60.8379c20.4219 -4.78223 21.3672 -31.7393 5.49707 -42.0947
c-71.0254 -46.3623 -84.585 -182.372 -73.4736 -259.758c2.85059 -19.8828 -14.4492 -35.8594 -33.8359 -26.0088c-39.665 20.1709 -62.2637 63.5244 -96.8291 90.3418c-36.8936 28.6172 -103.724 -61.6699 -128.594 -86.7334
c-14.0664 -14.1885 -39.5303 -3.83301 -39.3193 16.2734c0.913086 86.5537 32.9639 213.007 -69.4609 253.577zM176.363 270.07c-25.5371 -17.0713 -53.1377 -27.5928 -80.8613 -38.543c62.9893 -49.377 63.2529 -130.247 60.2129 -211.385
c31.9189 34.0693 71.1123 69.5781 107.196 65.1699c42.1211 -5.15527 66.5293 -43.7861 94.5889 -74.8145c-1.06934 76.8477 15.7979 165.731 63.4521 222.207c-40.501 11.208 -81.3447 27.1279 -110.054 57.0771c-22.0215 22.9854 -37.1631 50.5957 -50.9717 78.9609
c-19.5684 -38.9951 -46.2197 -73.7314 -83.5635 -98.6729z" />
    <glyph glyph-name="uniF146" unicode="&#xf146;" 
d="M154.105 168.406c-20.9727 -0.869141 -39.4824 6.56641 -44.584 27.9736c-8.62012 36.21 21.8604 51.2529 42.834 50.374c49.8428 1.75 47.2148 -75.7266 1.75 -78.3477zM261.604 255.47c-20.9746 -0.870117 -39.4844 6.56445 -44.584 27.9834
c-8.62012 36.21 21.8604 51.2529 42.834 50.374c49.835 1.74023 47.2139 -75.7373 1.75 -78.3574zM396.55 223.911c-20.9736 -0.871094 -39.4824 6.56445 -44.584 27.9824c-8.62012 36.21 21.8604 51.2529 42.834 50.374c49.835 1.74023 47.2148 -75.7363 1.75 -78.3564z
M381.558 73.0996c-30.002 -1.24512 -56.4775 9.38477 -63.7637 40.0137c-12.3281 51.7842 31.2637 73.2979 61.2568 72.0449c71.2773 2.49805 67.5254 -108.307 2.50684 -112.059zM175.036 81.5371c-56.5225 -17.918 -149.723 -24.6572 -169.954 48.4668
c-22.9492 82.9199 35.8955 156.619 95.4385 207.489c68.3623 54.4922 152.133 92.8252 241.26 74.3252c49.8252 -10.3428 104.771 -34.9551 136.949 -76.1533c33.1084 -42.3662 36.5918 -114.584 31.2197 -165.611c-5.97949 -56.9131 -22.0176 -121.906 -65.8359 -162.363
c-43.8369 -40.459 -115.281 -55.9043 -167.336 -20.3389c-24.3252 16.6201 -24.8389 46.1611 -21.0947 72.3584c3.29102 23.1152 3.81445 54.7979 -32.8223 41.5732c-16.1592 -5.83301 -31.457 -14.5566 -47.8242 -19.7461zM56.4131 218.521
c-15.9072 -33.4424 -26.5986 -94.6211 23.543 -103.545c62.5986 -11.1436 107.479 34.0684 166.829 33.25c49.7051 -0.686523 57.3135 -54.9609 51.9941 -92.251c-9.21973 -64.5068 83.6592 -49.4697 114.539 -17.501c35.4609 36.6963 51.1504 90.4844 53.8145 140.554
c1.91602 36.123 4.2832 98.877 -21.3652 128.653c-83.9717 97.4854 -224.353 70.8613 -314.463 -0.957031c-28.9561 -24.7441 -58.3145 -53.3438 -74.8916 -88.2031z" />
    <glyph glyph-name="uniF144" unicode="&#xf144;" 
d="M448.415 269.729c13.0918 -0.615234 21.5488 -9.86621 22.5879 -22.5898c5.37598 -65.4951 5.07812 -136.13 -0.695312 -201.606c-2.73828 -31.0713 -21.0703 -59.1689 -47.4258 -75.623c-62.7207 -39.1562 -148.362 -37.3848 -219.161 -29.002
c-46.9531 5.55664 -123.806 7.65332 -147.468 57.2646c-35.0205 73.4365 -11.3311 173.445 -10.4541 251.562c0.0712891 6.25195 2.28613 11.0781 5.60156 14.6465c3.62305 4.69727 9.24219 7.93359 16.9854 7.94141c3.28027 0 6.55957 0.0283203 9.84863 0.0361328
c3.60449 66.9043 22.46 136.312 92.9521 160.878c73.2549 25.5225 176.643 22.2705 226.649 -44.3789c17.501 -23.3291 -21.7461 -45.7988 -39.0039 -22.7959c-35.6514 47.5049 -139.879 47.3154 -186.834 18.0518c-39.0674 -24.3496 -47 -68.666 -48.7891 -111.573
c108.421 0.649414 216.877 2.23047 325.206 -2.81055zM425.756 85.9482c0.885742 46.4854 3.56836 92.9619 1.43652 139.409c-112.261 4.3457 -224.656 2.25879 -336.979 1.87012c-3.3418 -65.0693 -15.6211 -136.303 2.81934 -198.183
c6.56836 -22.0811 13.0732 -23.3369 34.9648 -29.0195c24.8193 -6.4502 50.2178 -11.2217 75.7227 -13.9404c58.9268 -6.26953 137.929 -13.6436 190.819 19.3799c32.1738 20.085 30.5566 45.6895 31.2158 80.4834zM234.377 134.151
c0.179688 29.1191 45.3555 29.1377 45.1748 0c-0.126953 -22.0996 -1.71777 -44.1465 -1.06641 -66.2539c0.858398 -29.1562 -44.3154 -29.0654 -45.1748 0c-0.649414 22.1094 0.94043 44.1543 1.06641 66.2539z" />
    </font>
</defs>
</svg>
